# https://github.com/mikedh/trimesh
v -2.19199860 5.82556254 -0.00652153
v -2.18859738 5.84593774 -0.18004822
v -1.73197845 5.17943836 -0.19999280
v -1.82463197 5.04194383 0.07283971
v -3.14742009 4.08012834 0.09874606
v -3.18845974 3.95347881 -0.05252668
v -3.04901555 3.84820363 0.12895166
v -2.31568100 3.92606537 0.18401827
v -2.36304056 3.74505098 -0.12175668
v -1.83485095 1.13901354 -0.14485063
v -1.99714347 1.23320900 -0.26965367
v -1.17369668 1.61818022 -0.25554402
v -1.41500112 1.84066164 -0.13320985
v -1.30905532 1.76448381 -0.44429685
v -1.01915029 0.55656050 -0.32505532
v -0.93638756 0.51409698 -0.22390363
v -0.65327618 1.34229268 -0.19352676
v -0.65086135 1.32549367 -0.42374450
v 1.75937910 1.12938766 -0.31024429
v 1.81696479 1.23883566 -0.20813492
v 1.31879970 1.67668005 -0.32066911
v 1.18135490 1.61390551 -0.09709766
v 1.07185206 6.03132579 -2.22932694
v 1.13074335 6.03568000 -2.34430635
v 0.59900633 4.79339059 -1.97131110
v 0.57651600 5.25656250 -1.59764795
v 0.21758050 5.87397046 -2.75876725
v 0.05742265 6.00794890 -2.54809108
v 0.30041310 5.95655461 -2.42846723
v -0.08267735 4.73921553 -2.17446242
v -0.31856380 4.91064850 -1.93131708
v 0.08115462 5.02977997 -1.82428128
v 0.05563562 4.16537448 -2.26870902
v 0.31109201 4.83586149 -2.78765267
v 0.47354161 4.86500542 -2.67990704
v 0.04850397 4.42275220 -2.14009917
v 0.30776097 4.34237852 -2.10549197
v 0.22135756 3.97860357 -2.19235010
v -0.73733127 5.86880637 -2.11622617
v -0.73661157 5.79868889 -2.30202565
v -0.35804350 4.98642502 -1.74676729
v -0.64874242 4.89771192 -1.69183822
v -0.62884423 4.92240123 -2.98995141
v -0.45195830 5.01000194 -2.92126502
v -0.56140153 4.39134082 -2.27274104
v -0.26106758 4.41974716 -2.27188873
v -0.31474425 4.25778728 -2.48992533
v 0.59859505 6.27032534 -1.41975623
v 0.38669806 6.23873766 -1.45357552
v 0.18532603 5.53335163 -1.25616124
v 0.57669548 5.59088650 -0.97077125
v 0.44589213 5.40313353 -1.49793931
v 1.30642465 6.89658754 -1.01111204
v 1.42377184 6.90185318 -0.82773437
v 0.85853953 5.51345267 -0.91555031
v 0.58965614 7.04776331 -0.94015656
v 0.75839141 7.00974803 -0.91363309
v 0.32463365 5.92113115 -0.98270133
v 0.06350144 5.64968319 -1.02339814
v 0.22610930 5.70072902 -0.75777904
v -0.01828153 6.49249015 -1.57702931
v -0.16783926 6.45215233 -1.61379376
v -0.33353401 5.55822888 -1.32163884
v 0.00879781 5.44533234 -1.50665646
v -0.77451866 6.38189959 -1.59563260
v -0.49043495 6.46558559 -1.39099609
v -0.86046615 6.41582516 -1.22350876
v -0.81306825 5.54771324 -1.13003794
v -0.52832955 5.57775794 -0.90526764
v -0.45113211 5.41493997 -1.43037662
v -0.97245744 5.95488908 -1.89528903
v -1.01636117 5.91331026 -1.98671009
v -1.12291266 4.87385580 -1.54976497
v -0.59321952 5.04711901 -1.44673201
v 1.54399029 5.93703446 -1.72147498
v 1.66113045 5.87205536 -1.58784004
v 1.16767745 5.02167953 -1.14734427
v 0.95221835 5.05821273 -1.42256921
v 1.27895493 4.57705697 -2.60409387
v 1.29781870 4.82149844 -2.61126336
v 1.04964302 4.42206213 -1.86522791
v 1.10305435 4.16720003 -2.02345563
v 0.84916012 4.35530406 -1.96464171
v 1.59806379 5.00505133 -2.16861380
v 1.47607971 5.17146377 -2.08209028
v 1.65115592 5.11282212 -1.99252566
v 1.03856400 4.73031766 -1.65590195
v 1.21845586 4.73000509 -1.51695399
v 1.27034927 4.52715402 -1.72053652
v 2.31428991 5.59865799 -1.59599832
v 2.27153468 5.71412011 -1.53311409
v 1.32543799 4.99224872 -1.06008177
v -1.57785876 5.60621078 -1.93739300
v -1.46384571 5.74792226 -1.98865797
v -1.15781604 4.89529222 -1.81267520
v -1.33051456 4.82192566 -1.99658867
v -1.39097884 4.89819687 -1.65867019
v -1.01443364 4.02660767 -2.92852593
v -0.88944803 4.23249152 -2.95023809
v -1.06331759 3.99729599 -2.25875534
v -0.84946522 3.71703192 -2.32891244
v -0.55383459 4.11810154 -2.36688749
v -1.66442874 6.64060754 -0.87956262
v -1.53543749 6.71369571 -0.92387125
v -1.34285360 6.18962313 -0.94109617
v -1.07580786 5.48588280 -0.61030005
v -1.14420041 5.19589916 -1.10046518
v -2.60380904 4.84562195 -1.93582064
v -2.42786764 4.96999513 -1.86246318
v -1.83544086 4.29711598 -2.04204375
v -1.90088788 4.40281202 -1.72515024
v -1.78362319 4.54796640 -1.95036274
v -2.61586651 5.64188987 -1.03779364
v -1.58391982 4.90229528 -1.45998125
v -1.85529535 4.64142326 -1.40694141
v -0.03960506 3.33696135 -3.64594533
v 0.05225274 3.47738154 -3.66465279
v -0.25412385 3.25563127 -2.45514374
v 0.19135497 3.24985450 -2.43645080
v -1.53722193 4.77605865 -2.74556681
v -1.43362387 4.70909899 -2.87896884
v -1.15561853 4.51268731 -2.13619367
v -0.89283132 4.33625096 -2.28309432
v 1.05650176 3.15567106 -3.07921337
v 0.91464430 3.18884236 -3.16150080
v 0.46320784 3.14162203 -2.40013128
v 0.79413374 3.13583120 -2.30292304
v -1.13644545 3.29756890 -3.06508379
v -1.00482144 3.23639606 -3.15945584
v -1.06608057 3.12552875 -3.05177793
v -0.94868196 3.13413992 -2.26306479
v -0.66705392 3.24109819 -2.36286243
v 1.82502710 1.87315685 -1.97762661
v 0.90364915 1.92468226 -1.38471228
v 0.85462926 2.16293548 -1.70705634
v 1.14837500 2.14680069 -1.25100063
v -0.09316124 2.17942269 -3.45615631
v 0.13862089 2.35169511 -3.34083124
v -0.29123167 2.50883945 -3.37038533
v -0.04648408 2.61306651 -3.45218052
v -0.24639557 2.36859111 -2.94118634
v -0.35638480 2.84837538 -2.31014530
v 0.36949764 2.64192734 -2.23607008
v 0.07947711 2.87462707 -2.35649772
v 0.96251130 2.41736296 -3.18424089
v 1.20062875 2.55396538 -3.00736654
v 1.06035111 2.70112700 -3.22568103
v 0.68056493 2.78855216 -2.20527815
v 0.67467492 2.40474955 -2.09680180
v 0.56374122 4.15817736 -2.83388587
v 0.68225780 3.80415926 -2.23155975
v 0.55305956 4.00389707 -2.10835724
v 0.25181211 3.63682924 -2.29464199
v -1.77020575 3.73814791 -2.64104032
v -1.64978527 3.74341944 -2.77484833
v -1.38668090 3.47951226 -2.26540876
v -1.41237636 3.91514845 -2.32254006
v -1.96896159 4.95607599 -2.44738249
v -1.84024094 4.98948157 -2.57460811
v -1.68362043 4.55251909 -2.25154638
v -1.47949582 4.75243204 -2.17283493
v -1.88067649 4.09678109 -2.92085723
v -2.02977216 4.06794366 -2.83680415
v -1.62777972 3.94103636 -2.27876568
v -1.59454685 4.17648339 -2.34026737
v 2.21949708 4.94905344 -2.71909223
v 2.33256915 4.80791694 -2.69200624
v 2.36993106 4.94132662 -2.55682818
v 1.75829316 4.50712446 -2.41099487
v 1.86507800 4.39860950 -2.07888200
v 1.85981872 4.45130746 -2.18337390
v 1.87274828 4.06997968 -2.97966484
v 1.69988674 4.07416201 -2.98648736
v 1.24585933 3.99711688 -2.21912380
v 2.57815224 3.87038449 -2.33686532
v 2.54779644 4.01976697 -2.35311835
v 1.92706320 4.05312742 -2.19837535
v 1.94384959 3.73483769 -1.90995227
v 1.93963313 3.60053154 -2.22310046
v 1.40556298 3.73670580 -3.05199869
v 1.56326958 3.74657209 -2.96373465
v 0.83366129 3.49925218 -2.53481399
v 1.14499515 3.70240789 -2.26618118
v 1.08668110 3.38896250 -2.32426619
v 1.20720751 3.13061243 -3.17386597
v 1.36859954 3.09310230 -3.12630301
v 1.06772551 3.18359297 -2.36024445
v 1.26387675 3.03302000 -2.20224414
v 1.78410297 3.44859037 -2.97710680
v 1.91495143 3.20336542 -2.83627271
v 1.38561749 3.41747249 -2.44970538
v 1.70360869 3.32480840 -2.28814361
v -1.65673953 3.10501749 -2.67142820
v -1.52027568 3.17232990 -2.75873877
v -1.30760010 2.86878725 -2.23051261
v -1.38309708 3.22168396 -2.21108445
v -1.25536655 2.48923081 -2.61031022
v -1.20884979 2.68409928 -2.64614533
v -1.08680590 2.55845514 -2.76721200
v -0.68664681 2.49964000 -2.31206050
v -1.08494755 2.57013094 -2.11118552
v -0.78012042 2.83470098 -2.30771349
v -2.31638958 3.35650413 -2.17312309
v -2.30707088 3.31097159 -2.32255490
v -1.72782959 3.31806621 -2.21200789
v -1.93150348 3.34309727 -1.90920020
v -2.58439781 3.75857120 -1.98891603
v -2.61734296 3.94937688 -1.87990724
v -2.52892115 4.00420012 -2.10444251
v -1.99617356 3.79979989 -2.09456541
v -2.08780384 3.65529387 -1.85117484
v -2.11460698 3.95385102 -1.70692265
v -2.92146856 3.42091823 -1.86032699
v -2.93101278 3.65128951 -1.92474462
v -2.15582192 3.34218957 -1.73321690
v -2.19998846 3.58074862 -1.60669005
v 0.07179760 1.45814927 -2.39346983
v 0.19307057 1.63345888 -2.60643696
v 0.33479639 1.44096132 -2.39569711
v 0.26665865 2.17404687 -2.03130575
v 0.19814754 1.85396393 -1.77197087
v -0.06809844 1.97157862 -1.95229914
v -0.19630655 2.35125223 -2.16925331
v -0.68666040 1.18084960 -2.37116219
v -0.74233725 1.12654931 -2.03459786
v -0.49366393 1.73937039 -2.14909840
v -0.44301752 1.10248337 -2.14636670
v -0.38123496 1.55555540 -1.95818880
v -0.69562115 1.79738593 -1.97992084
v -0.57959443 1.70077384 -1.76231307
v -0.18562924 0.65125507 -1.50857127
v -0.18079152 1.49789177 -1.64848310
v -0.02488157 0.59386771 -1.32176788
v -0.22973469 1.49528342 -1.28246747
v -1.94592151 2.02081192 -1.80050686
v -1.85328721 1.94372225 -1.98784042
v -1.21071679 2.05394418 -1.87290386
v -1.94066203 2.85068992 -2.23508521
v -1.98926649 2.63415797 -2.03058253
v -1.89280716 2.65220983 -2.29256180
v -1.71417210 2.62957508 -1.93130314
v -1.70843355 2.92388807 -1.98896375
v 1.04906615 1.18514603 -1.99653917
v 0.90363292 1.00224282 -1.85423545
v 0.75714480 1.15839378 -2.03410043
v 0.49232684 1.58485948 -1.60018450
v 0.74062876 1.80250691 -1.68653947
v -1.39850720 1.27414493 -1.93352797
v -1.22407412 1.12148477 -1.96173328
v -1.34283509 1.14233130 -1.73391976
v -1.00840092 1.78168386 -1.92001527
v -0.88625372 1.67466871 -1.75603388
v 0.72260752 0.54612005 -1.38121834
v 0.94238681 0.56933835 -1.64990259
v 0.08181400 1.52201124 -1.44636046
v 0.43718414 1.46850287 -1.49538404
v 0.33970196 1.35949487 -1.26830418
v 0.69996806 0.89244838 -1.73058298
v 0.97950289 0.79368708 -1.44248299
v 2.19670072 0.88713892 -0.83000171
v 2.26194941 0.97588822 -0.95785692
v 1.20625649 1.92969538 -0.98656807
v 1.36248007 2.16369731 -1.01099891
v -1.97742533 0.84076339 -1.34894670
v -1.88785665 0.77596762 -1.56764915
v -1.10376455 1.72807344 -1.65483855
v -1.17503042 1.56036657 -1.31707356
v -1.27924443 1.71975450 -1.42377244
v 1.65421014 0.87395846 -0.96461215
v 1.67702745 0.94618345 -1.14550829
v 0.86611690 1.69435069 -1.22314156
v 0.82005295 1.56530134 -0.79300102
v 2.63553082 4.98859543 -2.08762386
v 2.74715205 4.83659817 -2.04063348
v 1.99399371 4.35903024 -1.76067156
v 2.05992113 4.25964406 -2.01673626
v 2.86904971 4.34139188 -1.84532469
v 2.93281230 4.20483256 -1.70366891
v 2.92350973 4.38662397 -1.67846620
v 1.98886695 3.92247487 -1.63575945
v 2.06442904 3.99940007 -1.34039099
v 1.63570223 2.77946068 -2.72222664
v 1.70701046 2.60457165 -2.66355271
v 1.36666018 2.86300292 -2.06353973
v 1.39965239 2.63400831 -2.01861204
v 0.00641457 6.62057378 -0.75785829
v -0.10724440 6.59587438 -0.93556135
v -0.08362188 5.74030479 -0.69182104
v -0.15996910 5.69020064 -0.87302151
v -0.33164474 5.72052124 -0.61461376
v 0.80706644 6.71689924 -0.35117634
v 0.79172988 6.71236601 -0.53674769
v 0.35753616 5.66948795 -0.34790328
v 0.25629915 5.68236306 -0.58624851
v 0.48175544 5.66330607 -0.64763343
v 1.69888736 5.93262458 -0.95934794
v 1.58473081 6.02838228 -1.02039732
v 1.37507370 5.19458826 -0.90980844
v 1.20704008 5.28696465 -0.97020622
v 2.76310972 3.46600487 -2.26933629
v 2.63013887 3.58908844 -2.41330764
v 2.03652877 3.36236139 -2.07468031
v -3.21297295 4.84945570 -1.58706372
v -3.05739022 5.02709494 -1.67527921
v -2.14762848 4.28823832 -1.65944373
v -2.24578761 4.28135387 -1.31371346
v -1.06117137 6.52796078 -0.59518508
v -0.85180779 6.57008681 -0.62912595
v -0.92873976 6.49773727 -0.45484923
v -1.64049990 6.33068671 -0.23192043
v -1.63403946 6.14374378 -0.03132799
v -1.29714550 5.37965070 -0.44134110
v -1.26397200 5.37538731 -0.24684697
v -2.07850351 6.09642605 -0.50050428
v -2.08315298 6.15596938 -0.39370001
v -1.56410887 5.08464720 -0.46251565
v -2.09263107 5.84982460 -0.70817464
v -2.13420416 5.82756666 -0.86276051
v -1.69736847 5.03711600 -0.93828180
v -1.66732865 5.16991864 -0.64601311
v -2.72654841 5.49334750 -0.93307486
v -2.65756680 5.56672264 -0.73500279
v -2.06620967 4.52356267 -0.96294599
v -1.96734766 4.63651488 -0.70139290
v -1.85178282 4.67989745 -1.02617817
v -3.02954806 5.20029094 -0.60483479
v -2.99342869 5.38466456 -0.51469680
v -2.19656460 4.23747110 -0.42535405
v -2.05898596 4.36368634 -0.61442459
v -2.53329216 5.58834237 -0.30033206
v -2.53440834 5.73817158 -0.39120404
v -1.90296779 4.84812385 -0.22394840
v -1.74702749 4.80544685 -0.49673751
v -2.52816530 2.95528485 -1.57646993
v -1.89139829 2.87885549 -1.65248013
v -1.99506118 2.86937112 -1.27588764
v -1.99570119 3.14188192 -1.46826137
v -3.13590898 3.03609375 -0.78293789
v -2.39034822 3.25073050 -0.47469423
v -2.36763166 3.49986205 -0.62740957
v -2.31546974 3.22302951 -0.62907234
v -2.83917069 3.94061744 -0.72746864
v -2.79206322 3.98211457 -0.87023758
v -2.26449896 3.68323686 -0.99921023
v -2.23993700 3.91455112 -0.71241968
v 1.77855222 6.23704624 -0.48262807
v 1.07332273 5.32768057 -0.73648674
v 1.29255507 5.23994037 -0.54042191
v 1.01763489 5.36214844 -0.41957334
v -1.35733939 6.41571252 -0.10153875
v -1.24568564 6.50789887 -0.00408051
v -1.06631988 5.38141163 -0.17464433
v -0.98883228 5.49990390 0.13682740
v -0.82114520 5.56920862 0.01294213
v -0.91265786 5.48618550 -0.20019193
v -2.63240943 0.99057666 -0.88784368
v -2.59927742 0.95189761 -0.70319431
v -1.56369476 1.85707549 -1.12247624
v -1.64305221 2.07333429 -1.05747738
v -1.58244610 1.81419883 -0.82680012
v -2.46951794 0.85825831 -0.88486616
v -2.22801504 1.98514466 -1.38325024
v -2.09539453 2.02927850 -1.57128530
v -1.57364225 1.99634490 -1.42472063
v -1.70394372 2.29643346 -1.40129726
v -3.11673864 2.25008634 -0.53242614
v -1.99542469 2.68320181 -0.48242792
v -2.10802606 2.91010845 -0.59866095
v -3.21251570 2.41393532 -0.43134955
v -2.86765578 1.88155927 -0.60277739
v -2.88116633 1.76764145 -0.82302109
v -1.81829219 2.50445736 -0.47463667
v -1.78695759 2.53229112 -0.79477735
v -2.86021311 1.65323660 -0.65858475
v -2.36872246 2.11650101 -1.19142588
v -2.40734955 2.13150023 -1.35849152
v -1.82852717 2.51656293 -1.16901296
v 0.07512066 -0.00253196 -0.97474816
v 0.08315255 0.00863504 -1.19222846
v 0.26623100 0.10196270 -1.11220323
v 0.06895850 1.25427888 -1.02444192
v -0.05530150 1.25234960 -1.19916397
v 0.23712365 0.66357781 -0.63059452
v 0.04916379 0.66357616 -0.62714995
v 0.21449092 0.70243359 -0.82573829
v -0.02504414 1.39667827 -0.81510652
v 0.20048881 1.41249040 -0.79386387
v -1.18726636 0.68722640 -1.50493640
v -1.03778472 0.60468939 -1.64389981
v -1.06151039 0.49702068 -1.40287960
v -0.86399930 1.54449768 -1.25636610
v -0.60731439 1.46159167 -1.23141906
v -1.57440182 0.59801804 -0.80124603
v -1.49095966 0.49160595 -0.81043390
v -0.87979841 1.42715934 -0.83640555
v -0.80990640 1.36137592 -0.59990562
v 0.97494271 0.18084603 -0.94834778
v 0.91118127 0.12998923 -1.23284603
v 0.76284617 0.17922904 -1.02596008
v 0.44239875 1.11256200 -1.03391585
v 0.41442057 1.52629144 -1.09215455
v 0.53450121 1.54945463 -0.93777100
v 1.03831366 0.31435279 -1.15988793
v 0.40960268 1.47526124 -0.80532751
v 1.20208786 0.66197178 -0.38406146
v 1.13933791 0.62747935 -0.62622995
v 0.78158830 1.45626971 -0.51737619
v 0.62109342 1.44184424 -0.69410969
v 0.56291772 1.40003727 -0.40316772
v 1.27459038 0.84704320 -0.61835094
v 2.65102254 1.69904027 -1.00630355
v 2.74323493 1.82610843 -1.00536928
v 1.50708250 2.37185806 -0.81717861
v 1.52873109 2.34860489 -0.45082048
v 3.23086490 2.47901061 -0.53966592
v 3.07984143 2.39853120 -0.55266397
v 1.96226658 2.91631717 -0.37486723
v 1.86699727 2.69278101 -0.63078981
v 2.16369777 2.08436948 -2.09841938
v 2.22914781 2.24064484 -1.95828946
v 1.49243325 2.90725874 -1.70557525
v 1.78747026 2.52746603 -1.57619257
v 1.62751351 2.29079165 -1.65339998
v 2.01895401 2.03020187 -2.77305785
v 1.96767658 1.89062929 -2.64719064
v 0.98390807 2.34973554 -2.08043575
v 1.20413156 2.59711936 -2.14974865
v 1.15656411 2.32053244 -1.68467834
v 2.24344447 2.89715563 -1.75797365
v 2.20922857 3.07495168 -1.76159218
v 1.64825298 3.13661094 -1.61482379
v 1.69218201 2.90804303 -1.41500266
v 2.65619229 3.17820322 -1.40414572
v 1.98960374 3.44904258 -1.33934014
v 2.70752892 3.31158112 -1.35184739
v 2.07214928 3.35005883 -1.08457905
v 1.92286179 3.22309849 -1.20535908
v 2.40258036 2.55105423 -1.39757456
v 2.35627913 2.79004980 -1.47622543
v 2.44150270 2.73219347 -1.25377509
v 1.83608746 2.68060890 -1.34857787
v 1.91921370 2.99756599 -1.22104897
v 1.90136985 2.72450658 -1.01589334
v 2.57319747 3.71459598 -1.13133715
v 2.52556116 3.92292597 -1.16284524
v 2.61654627 3.86379457 -0.94960229
v 2.74797952 5.16918929 -0.93445519
v 1.84045103 4.59087540 -0.82097049
v 2.68043304 5.07094291 -0.81218661
v 1.92678743 4.35370001 -0.93072775
v 1.82571043 5.92697519 -0.84502367
v 1.43152435 5.17638885 -0.67889654
v 1.81589973 5.87574821 -0.68535861
v 1.49908413 4.89239556 -0.91320012
v 2.07211996 5.63788177 -0.59409794
v 1.98775870 5.71679828 -0.72782058
v 1.53455339 5.07800465 -0.64780243
v 2.48822048 5.29786720 -0.30206414
v 2.50657713 5.25239336 -0.45025369
v 2.04253366 4.56304607 -0.40498922
v 1.88022759 4.80021740 -0.22741336
v -0.07600054 3.69518398 -2.45847241
v -0.44424419 5.62276955 -0.55692565
v -0.71140177 5.49830223 -0.65653332
v -1.18362201 5.36846673 -0.53729708
v -1.33314735 2.37998883 -1.91904542
v -1.47934931 2.10898085 -1.54759533
v -1.61702841 4.86503223 -1.13437021
v -1.67351712 2.35165714 -0.69454891
v 1.08176793 2.81237765 -2.20314448
v 1.33755739 1.98915427 -0.78187664
v 1.58331162 2.54845095 -0.72284363
v 1.98097379 3.59729280 -0.98904316
v 1.78818392 4.87563766 -0.59933611
v 1.46393294 3.75880659 -2.32472753
v 1.55665133 4.00667514 -2.24990942
v 1.96547902 4.02368337 -0.93753534
v 1.47149267 4.71194027 -1.29015122
v 1.03727069 5.17026598 -1.08147633
v 0.14241437 6.08975948 1.62906566
v 0.26284471 6.20580089 1.45147499
v 0.10334117 6.21832103 1.36153241
v 0.20678947 5.48904555 1.32858149
v -0.20689198 5.31032368 1.31801016
v -1.33035141 5.96107203 1.97003127
v -1.29333449 6.04073096 1.85823188
v -0.74267672 4.85859083 1.61721178
v -0.25292893 5.98354707 2.27718354
v -0.47376334 5.87628498 2.38843973
v -0.51097072 5.95606391 2.07102049
v 0.13672486 4.86210394 1.56276788
v -0.30073130 5.01123174 1.48968927
v -0.12533846 4.73403960 1.83796251
v -0.60766599 4.77440031 2.45019591
v -0.50618873 4.86945079 2.37663537
v -0.66103863 4.87937647 2.29875625
v -0.49839821 4.39421722 1.75064994
v -0.21645737 4.36690204 1.83405997
v -0.36007965 4.17782008 1.94493177
v 0.58814472 5.72600612 1.89254708
v 0.42330718 5.76223133 1.90553965
v 0.52390751 5.86862291 1.75626464
v 0.37888165 4.99823563 1.47171694
v 0.41261885 4.98433812 1.20558446
v 0.21079013 5.09433929 1.15699863
v 0.10650163 4.98427281 1.36165238
v 0.34843846 4.85035000 2.68130606
v 0.21319562 4.95627516 2.62026050
v 0.41104787 4.98294312 2.55231567
v 0.01512586 4.37686875 1.98923335
v 0.34961342 4.39131104 1.93084592
v 0.30396351 4.10608751 2.05733857
v -0.81000659 6.27045973 1.04315280
v -0.60212638 6.23900574 1.08141583
v -0.81262052 5.52057966 0.64620248
v -0.78472489 5.27056831 1.11030706
v -1.51509916 6.89674711 0.62940374
v -1.54752931 6.93110463 0.43453288
v -1.65710926 6.83125461 0.49492527
v -0.83698759 5.64060909 0.44222970
v -0.99025307 5.60381848 0.31042633
v -1.07023687 5.51386329 0.53788749
v -0.80114594 7.04784362 0.55445358
v -0.89920862 6.97311426 0.44391090
v -0.96559834 6.98088633 0.59359052
v -0.31824263 5.69580745 0.64509191
v -0.12385069 5.72904110 0.37213334
v -0.32057499 5.70853977 0.38266980
v -0.52038244 5.65532663 0.47617783
v -0.19349702 6.49262074 1.20503461
v -0.04472144 6.45461587 1.24485625
v 0.00467056 5.40348054 1.12847931
v -0.42513847 5.55349102 0.81151844
v -0.34950075 5.46015202 1.08550227
v 0.69121072 6.29676412 1.10101237
v 0.39365037 6.43042710 1.21448353
v 0.55780603 6.49260237 0.83483592
v 0.28181813 6.39207484 0.88560385
v 0.31096380 5.58183745 0.54355960
v 0.10965114 5.58967440 0.85662807
v 0.24147475 5.41570094 1.07426820
v 0.76136122 5.95499771 1.52634220
v 0.80461068 5.91313011 1.61797031
v 0.80455213 4.83074520 1.26170596
v 0.98215964 5.03106028 0.77721800
v 0.44036693 5.10734931 1.02699962
v -1.85679159 5.92268475 1.19387417
v -1.74731403 5.88119059 1.36245526
v -1.34841816 4.95465750 0.92538085
v -1.13964296 5.08410673 1.03370497
v -1.41504398 4.66089157 2.30054709
v -1.58990424 4.71770811 2.22103662
v -1.44055412 4.79541780 2.19511448
v -1.04686714 4.35488670 1.61199836
v -1.37329842 4.23982665 1.61262154
v -1.70830761 5.07401294 1.81658174
v -1.88191855 5.14082616 1.63643582
v -1.28784328 4.72020798 1.28175325
v -1.21434206 4.44632752 1.45480802
v -1.44387760 4.73797528 1.16988628
v -1.49079384 4.53452073 1.33916986
v -2.52500720 5.67220076 1.11037336
v -2.47915202 5.63670275 1.21866844
v -1.53179374 4.98271390 0.68713381
v -1.70854679 4.90522405 0.56767917
v -1.77175574 4.71101132 0.68294266
v 1.36623008 5.60655538 1.55518765
v 1.24654341 5.74845558 1.61125983
v 0.98255767 4.86155580 1.57256094
v 1.04180395 4.92734670 1.29642307
v 1.17321628 4.80005285 1.59151352
v 0.82460152 4.06267117 2.61568230
v 0.64403786 4.22978289 2.60406264
v 0.58946709 3.72369522 2.00381820
v 0.77208002 3.99952382 1.90919606
v 1.45478058 6.65161381 0.49807172
v 1.33239124 6.71202392 0.53599789
v 1.19078164 6.17137590 0.49920128
v 0.96092502 6.05271808 0.50984152
v 0.61233127 5.24563305 0.79752937
v 0.58318657 5.49439166 0.63329711
v 2.39271826 4.80363870 1.51504529
v 2.28598738 4.97983880 1.55051114
v 1.66794071 4.42732076 1.36174461
v 1.57212036 4.54840649 1.59046415
v 1.69597113 4.27456679 1.50187438
v 1.60497119 4.37343513 1.71506861
v 2.36633472 5.63046084 0.63163850
v 1.66708873 4.64582636 0.85741591
v 1.62773120 4.68240386 0.66894147
v 1.33396029 4.89364936 0.84386295
v 1.25592541 4.80171212 1.28836502
v 2.37542627 5.59521416 0.69816356
v -0.34520600 3.30612679 3.52662366
v -0.14066152 3.55265949 3.58759107
v -0.12751044 3.26221640 3.55497188
v -0.30640183 3.51888648 3.65374413
v -0.07655713 3.43935966 2.74183662
v -0.44350221 3.33412953 2.12869166
v -0.24405721 3.27573033 2.73782133
v -0.02770981 3.75005906 2.11998780
v 1.34223408 4.69286121 2.43666291
v 1.18726808 4.71208812 2.50847226
v 1.03643403 4.16976141 1.95656837
v 1.00991593 4.47156487 1.79045391
v 1.26771014 4.78370321 2.38457340
v 0.70249036 4.37762540 1.94946490
v -1.26792977 3.15575997 2.75121745
v -1.12601397 3.18903571 2.83382153
v -0.71753216 3.02135670 2.00611338
v -0.80181760 3.32165646 1.96787324
v -0.95652114 3.09887014 1.92698988
v 0.90059950 3.15064791 2.75315720
v 0.79361352 3.23655458 2.83717025
v 0.92504618 3.29758298 2.74382067
v 0.73810062 3.07949845 1.90140151
v 0.56232675 3.30339646 2.00836217
v 0.44125873 3.01916510 2.00388432
v -2.03294773 1.87343465 1.62129947
v -1.11114228 1.91700715 1.00681365
v -1.08642299 2.16393381 1.32958859
v -1.34827793 2.12323511 0.85554350
v 0.03781917 2.50485590 3.52711677
v -0.36841321 2.53309076 3.38914130
v -0.11379241 2.28015708 3.20517413
v -0.15905150 2.78125928 3.39335182
v 0.13181738 2.66559850 1.96753416
v -0.08248716 2.40080904 1.87115391
v 0.02748887 2.69068771 2.62515949
v -0.12311243 2.97642286 2.01573587
v -0.37570993 2.64445452 1.94935704
v -1.25503733 2.38690035 2.76141519
v -1.42691794 2.57093313 2.69336196
v -1.27141422 2.70074817 2.88593745
v -1.06122429 2.55396205 2.76255155
v -0.74603858 2.48485683 1.88829000
v -0.78602222 2.72326569 1.92293571
v -0.99637543 2.49912872 1.79331669
v -0.70115006 4.10752786 2.48766896
v -0.82538307 4.17269903 2.43697971
v -0.46505311 3.78374505 1.95738231
v -0.85814921 3.92535521 1.80142667
v -0.52651801 3.99841570 1.82330348
v 1.54776291 3.76628641 2.30844763
v 1.47842785 3.72450567 2.46808570
v 1.17331181 3.47908565 1.93519555
v 1.19728268 3.91728587 1.98536640
v 1.75780839 4.95654710 2.07892167
v 1.62892356 4.98964068 2.20802387
v 1.47349860 4.55154293 1.89527416
v 1.26912408 4.75275438 1.81106339
v 1.69640902 4.06997138 2.59264517
v 1.81836982 4.06780082 2.49803829
v 1.41611380 3.94135412 1.94421522
v 1.42679736 4.14379017 1.94075446
v 1.28384722 4.12291545 2.11481034
v -2.61519314 4.88692838 2.17821167
v -2.46183638 4.88084539 2.34611823
v -2.47692731 4.98830306 2.18150619
v -1.89320626 4.52947637 1.78639830
v -2.07654000 4.39860950 1.69345550
v -1.98225956 4.31539442 1.95419305
v -2.09580418 4.08794145 2.56813516
v -1.94421084 4.08274694 2.63908766
v -1.81908394 3.93892288 1.92634960
v -1.59278326 3.86092083 2.09537402
v -2.82670681 3.92600480 1.88705963
v -2.68609545 3.95873382 2.02136618
v -2.12899616 4.01200557 1.86625242
v -2.16607558 3.60882553 1.83821475
v -1.70021618 3.64235851 2.60431453
v -1.61656663 3.73552113 2.73092168
v -1.70972060 3.81043002 2.56838379
v -0.88837176 3.78561464 1.91523026
v -1.36565918 3.71971853 1.94934964
v -1.29781062 3.38886128 1.98783301
v -1.44900534 3.10073923 2.87639694
v -1.57868131 3.11967272 2.78715208
v -1.19113312 3.11039633 2.12547682
v -1.31919790 3.21224958 1.99844174
v -1.44836741 3.00993397 1.86789041
v -1.05501345 2.80786876 1.85666188
v -1.98381499 3.17434737 2.48060333
v -2.15924223 3.28390551 2.40588850
v -1.95690311 3.36722369 2.64811175
v -2.03164953 3.46665112 2.48267811
v -1.62793753 3.47673859 2.05085490
v -1.85566423 3.45375663 1.93601469
v 1.40189304 3.04089507 2.33285670
v 1.38098323 3.19601296 2.41555590
v 1.09588280 2.86845306 1.88481652
v 1.17153121 3.22219049 1.87430713
v 1.05187974 2.62236088 2.27866055
v 0.95297628 2.45587222 2.37237161
v 0.89227215 2.67370319 2.38197577
v 0.47455523 2.50028902 1.96923687
v 0.84988980 2.52846159 1.74387579
v 0.56772929 2.83439875 1.96511826
v 2.05888086 3.22827891 1.89763167
v 2.10475247 3.35622980 1.82280006
v 2.00258428 3.38521258 1.99756577
v 1.48641923 3.21459959 1.83250817
v 1.63610496 3.21430122 1.57964125
v 1.50325218 3.46601077 1.82497480
v 2.36316307 3.88622812 1.75919936
v 2.38561965 3.94576632 1.50076187
v 2.35733382 3.76859153 1.57482580
v 2.29394679 4.03613571 1.68607067
v 1.89170240 3.96429766 1.43762003
v 1.78973681 3.79035093 1.74929476
v 2.71022777 3.42070820 1.48455737
v 2.64472638 3.59953812 1.63538672
v 2.71404780 3.64294554 1.45487915
v 1.69349049 3.42891002 1.60025030
v 1.93901143 3.33977278 1.38213411
v 1.98616094 3.56864438 1.24458956
v 1.87948813 3.67553927 1.45944801
v -0.41054265 1.40646405 1.99179244
v -0.26143519 1.56731737 2.18068370
v -0.56930338 1.47875547 2.10047385
v -0.45459141 1.66387916 2.24704846
v -0.45937186 1.87855815 1.43424933
v -0.24004968 1.81614263 1.64194029
v -0.25525868 1.99780918 1.82242012
v -0.48972870 2.12448602 1.70833365
v -0.66528777 2.06872625 1.54309386
v -0.07383014 1.90539276 1.55500900
v 0.44443328 1.05983492 1.67316856
v 0.59694688 1.18147467 1.84820331
v 0.24570255 1.08712450 1.88810800
v 0.36065670 1.33779325 2.01022352
v 0.29749502 1.81081574 1.79904161
v 0.16773210 1.55599319 1.61339804
v 0.47616290 1.58611594 1.60391579
v -0.20463860 0.60010274 0.96271805
v -0.02750688 0.64147473 1.13570979
v -0.21350896 1.53787392 1.25191605
v 0.03220336 1.52546633 0.96772571
v 0.08104190 1.65263992 1.29137343
v 1.74268871 2.01816190 1.43126115
v 1.63774592 1.97178345 1.64474138
v 1.01533393 2.03779155 1.52475389
v 1.20991220 2.06312303 1.19057775
v 1.24555892 2.40574047 1.40896707
v 1.78881021 2.60571992 1.76170856
v 1.81256508 2.78495989 1.72657705
v 1.65538490 2.84217187 1.92886787
v 1.62286205 2.62776086 1.92272929
v 1.51888803 2.87301772 1.56502366
v 1.35847470 2.81803841 1.83556451
v -1.24919851 1.17785047 1.48267567
v -1.15392563 1.23951529 1.67999242
v -1.11515445 1.00242630 1.47736209
v -0.96997035 1.15714610 1.66323590
v -0.93854695 1.71839079 1.24918028
v -0.70440473 1.58387464 1.23743877
v 1.18730818 1.27419726 1.55646144
v 1.01267628 1.12166676 1.58779338
v 1.13134868 1.14283974 1.35637358
v 0.66708014 1.86027944 1.58905131
v 0.89257370 1.76215028 1.35705873
v 0.67621508 1.68011271 1.38055330
v -0.94230965 0.52757389 1.24867991
v -1.24510394 0.67730772 1.09295893
v -0.28498921 1.51848602 1.02355153
v -0.55951741 1.49902821 1.17727475
v -0.65441723 1.46339169 0.97606721
v -0.51445585 1.34966183 0.91213334
v -0.85861709 0.80446746 1.33559306
v -1.15806213 0.78652857 1.30753028
v -0.95808499 0.61664314 0.95930093
v -2.36740575 0.88751931 0.62374769
v -2.47917187 1.00026607 0.72332416
v -1.54822024 2.00895777 0.66302466
v -1.60455033 2.08327988 0.37754811
v -1.50293077 1.91930792 0.46363419
v 1.76586154 0.84089766 0.96526937
v 1.56578996 0.78361951 1.10186287
v 1.72171454 0.83647130 1.18661540
v 0.95259323 1.48882335 1.09768804
v 1.00746377 1.60933006 0.93578993
v 1.06464975 1.71884049 1.11689043
v -1.81689410 0.84623030 0.65292568
v -1.94463108 0.96794521 0.74438363
v -1.30135986 1.75592125 0.42540408
v -0.98035005 1.56255557 0.50157756
v -1.10511759 1.69039630 0.82745864
v -2.84892693 4.94287031 1.73389050
v -2.95859775 4.83630533 1.63225188
v -2.81136104 4.95469240 1.57723133
v -2.11645997 4.17608398 1.68086603
v -2.94053352 4.88261150 1.25968122
v -2.79243784 4.94998704 1.37521294
v -2.39230442 4.14743058 1.07463930
v -2.28530271 4.23142029 1.32887148
v -2.39891538 4.01254224 1.28160688
v -1.83335839 2.59658369 2.33959524
v -1.95275748 2.76379467 2.28997166
v -1.59396192 2.84438033 1.68654883
v -1.52587747 2.58373799 1.78186243
v -1.39966504 2.77299158 1.90220349
v -0.17029150 6.61613514 0.36030265
v -0.06768022 6.57889671 0.53804078
v -0.24843012 6.58395055 0.49890400
v 0.06010773 5.73225088 0.21914602
v -0.01329006 5.67483328 0.51648894
v 0.18930313 5.63887939 0.33776752
v 0.00969900 6.62305209 -0.13956268
v -0.18371257 6.67350057 -0.14651291
v -0.26580219 5.77348099 0.17998765
v -0.14100112 5.75617060 -0.09441624
v -1.01815847 6.71354135 -0.07823595
v -1.00559611 6.70789937 0.10718007
v -0.68549332 5.63782648 0.26952253
v -0.66552085 5.64965119 -0.05594251
v -0.43920751 5.68921114 0.09627319
v -1.89275503 5.91032919 0.53939745
v -1.84507857 5.98541348 0.69616326
v -1.75159571 5.95066419 0.57970198
v -1.47188629 5.26947214 0.52164000
v -2.80673300 3.59602731 2.01034012
v -2.98686716 3.47652080 1.86651061
v -2.24618560 3.38918982 1.69521313
v -1.85773018 3.21624185 1.85657073
v 3.00141924 4.84918666 1.20062710
v 2.77541888 4.95980851 1.14480179
v 2.85264029 4.98562307 1.34695370
v 2.07475548 4.11594155 0.96540932
v 1.93780495 4.28860713 1.29533392
v 1.97685657 4.33615531 0.98035903
v 2.02612485 4.00783318 1.23408936
v 0.64072805 6.57049700 0.24657619
v 0.71174329 6.50008499 0.07281106
v 0.84962649 6.52759457 0.22376454
v 0.51550141 5.50221715 0.24035411
v 0.40797863 5.58558609 0.13933959
v 1.35929338 6.32358836 -0.29487743
v 1.41185026 6.12133949 -0.35558510
v 1.52467070 6.15757684 -0.19767629
v 1.30107363 6.14134274 -0.07723600
v 1.09852908 5.39703968 0.02977070
v 0.96831614 5.39501319 -0.16000623
v 0.83573699 5.40599771 0.10353767
v 1.86758013 6.09669628 0.11511316
v 1.89084696 6.10512395 -0.00471196
v 1.74655711 6.11119470 0.02648599
v 1.34624891 5.06694865 0.04358572
v 1.09010519 5.27795551 0.29574275
v 1.95781718 5.73601644 0.37353737
v 1.85957069 5.88273449 0.42947962
v 1.35643028 5.19068351 0.34732593
v 1.55116840 4.94648035 0.45698924
v 1.50324290 5.05315746 0.24634676
v 1.38759012 5.09272494 0.56727015
v 2.52634400 5.43901164 0.52268384
v 2.38078447 5.55164469 0.53387700
v 2.46675506 5.53469883 0.33901547
v 1.85488228 4.52417926 0.58905598
v 1.72857345 4.69345467 0.33844348
v 2.78925253 5.23930053 0.24403642
v 2.78194702 5.38464627 0.12926412
v 2.63595202 4.89854782 0.15236927
v 1.85299522 4.38163741 0.18271861
v 1.86806121 4.31851023 0.35867804
v 1.99797656 4.23889994 0.04585992
v 2.32313862 5.73780162 0.00623176
v 2.31719287 5.59970999 -0.08698109
v 1.57361720 4.77092055 -0.15938876
v 1.48098805 4.83403400 0.04223290
v 1.62816853 4.66441260 0.10634448
v 2.27953002 2.97408740 1.13617442
v 2.28823902 2.93725460 1.24814788
v 1.78356260 2.78064129 1.09538136
v 1.81557670 3.07967269 0.90237352
v 1.71636161 3.08359217 1.26817005
v 2.91898101 3.02712084 0.39684481
v 2.14497099 3.55576502 0.11847835
v 2.13685032 3.35981684 0.35480790
v 2.17068490 3.24442655 0.09052426
v 2.62752170 3.94059491 0.34665531
v 2.58071241 3.98213632 0.49079557
v 2.05337608 3.68338215 0.63126702
v 2.04259001 3.83358760 0.29583238
v 1.98311440 3.97946959 0.47585915
v -1.99001063 6.23698189 0.09386910
v -1.28481522 5.32767955 0.35512860
v -1.41598047 5.26724201 0.02353761
v -1.48123099 5.24381805 0.26078179
v -1.20683848 5.37278591 0.09804836
v 1.14204862 6.38008497 -0.42460944
v 1.00589484 6.50315371 -0.32268789
v 0.85513541 5.38796636 -0.34842838
v 0.74288507 5.52861200 -0.62027917
v 0.58431217 5.58427091 -0.44263533
v 0.69405741 5.48713518 -0.20984772
v 2.42096341 0.99054211 0.50301261
v 2.38775249 0.95196081 0.31819150
v 1.40163750 1.86003507 0.43537519
v 1.49828510 1.96736483 0.57659189
v 1.29471133 1.77747227 0.58860160
v 1.37278636 1.89829124 0.74148491
v 2.25809963 0.85823129 0.50006375
v 1.98449476 2.03065276 0.98571195
v 1.93015696 1.90197307 1.09173793
v 1.93668486 2.10967941 1.14422960
v 1.37885179 2.11605455 1.09516052
v 1.46183517 1.98977780 0.81058121
v 1.50604312 2.26012966 0.86851009
v 2.92402073 2.29710837 -0.01011843
v 2.97708149 2.35858639 0.19464077
v 1.81084575 2.80760154 0.32016498
v 1.78178558 2.69632136 0.05126921
v 1.89631214 2.89687107 0.06572962
v 2.65595543 1.88175475 0.21780640
v 2.67010886 1.76756406 0.43793121
v 1.48579900 2.39957122 0.39547065
v 1.62787586 2.55196018 0.13579080
v 1.59169493 2.55752468 0.39757830
v 2.64863746 1.65333414 0.27312708
v 2.15694036 2.11660060 0.81229397
v 2.19605480 2.13140369 0.97988033
v 1.52965271 2.46126322 1.11256628
v -0.40701898 0.02965439 0.57743981
v -0.29305317 0.00233307 0.80343738
v -0.26005748 0.09888034 0.60092954
v -0.18343679 1.13952935 0.82979854
v -0.30870816 1.31488513 0.80480167
v -0.19478586 1.21926056 0.62654257
v -0.45023376 0.09307638 0.76616173
v 0.12379265 0.66161287 -0.48535491
v -0.02380775 0.68736485 -0.26083493
v 0.10435329 0.71859966 -0.05686599
v 0.40216315 0.80845824 -0.30061148
v -0.11457984 1.41167768 -0.30828590
v 0.25459561 1.44640489 -0.31821096
v 0.08128621 1.41926636 -0.08902253
v 0.04226300 1.39427955 -0.54493165
v -0.34612735 0.73533290 0.06556555
v -0.24162165 0.84615165 0.34770191
v -0.21342520 0.83041355 0.00819957
v -0.51304450 0.94494862 0.15373103
v -0.40636421 1.34303670 0.25946725
v -0.10454892 1.31356173 0.24030083
v -0.01373001 1.55335289 0.42618006
v -0.44762168 1.54154694 -0.00407667
v -0.17984504 1.52472387 -0.01288026
v 0.97592044 0.68677718 1.12533661
v 0.81415719 0.60196640 1.26581833
v 0.85020367 0.49728083 1.02246432
v 0.56943950 1.51250679 0.73593119
v 0.58532773 1.57612942 0.99362202
v 0.38750931 1.47402295 0.90136026
v 1.36298505 0.59789432 0.41630011
v 1.26095277 0.53458356 0.48141261
v 0.65816746 1.44304437 0.46202500
v 0.52754506 1.34194611 0.26725804
v 0.70405821 1.46116988 0.30590344
v 1.27786169 0.50418176 0.36224432
v -0.97802529 0.16436235 0.75079858
v -1.16632555 0.15495212 0.54805467
v -1.23674925 0.22286824 0.83504074
v -0.54786608 1.50025902 0.71352988
v -0.72929660 1.55978071 0.64482368
v -0.47024876 1.52499125 0.48980303
v -0.68566384 1.49100603 0.44223622
v -1.47204415 0.77371033 0.01597839
v -0.96475338 1.50531166 0.24669388
v -0.84124512 1.37881851 0.01081656
v -0.77282990 1.41907419 0.28810115
v -1.38549567 0.65331727 0.26388068
v -1.48615363 0.84696499 0.23346780
v -1.32358369 0.65309218 0.02471859
v -2.84102540 1.74902789 1.07377495
v -2.87638006 1.92268792 1.01859424
v -1.71666986 2.38481753 0.61125182
v -1.79626321 2.56034674 0.60177397
v -1.79818839 2.55653079 0.31552037
v -3.19401823 2.31910428 0.59506690
v -3.18968439 2.37722527 0.49469293
v -1.96774985 2.86689404 0.47570282
v -2.04081932 3.07876448 0.21356399
v -1.93087087 2.83725661 0.14286034
v -2.36139862 2.16680067 1.80185117
v -2.33359943 2.06513415 1.65265055
v -2.43970040 2.23903460 1.64094403
v -1.74350099 2.87647179 1.32298146
v -1.80075449 2.28795420 1.34069530
v -1.81896890 2.49789813 1.63136140
v -2.12026171 1.87839157 2.30508540
v -2.27319516 1.99832931 2.31312807
v -1.21899949 2.35714730 1.67328171
v -2.14486379 1.98181088 2.44361491
v -1.80838348 2.24874882 1.97004871
v -1.36772151 2.32396746 1.32771210
v -2.44843346 2.90558638 1.35612173
v -2.39427681 3.00572786 1.48473984
v -1.90067297 2.85388956 1.09591144
v -1.77726113 3.09000691 1.34440906
v -2.89211204 3.06446529 0.99247661
v -3.02735823 3.16811703 0.88838688
v -2.38214461 3.40604653 0.91475629
v -2.36160639 3.21487934 1.02048209
v -2.60075291 2.57003161 1.13146922
v -2.66273087 2.76831450 1.10992051
v -2.30868761 2.68911651 0.78065749
v -2.00003914 2.67951855 1.01433758
v -2.15794631 2.98585516 0.84933922
v -2.82895680 3.99214169 0.93589213
v -2.57511868 4.02902144 1.08590258
v -2.70034242 4.14547779 0.92771658
v -2.31748238 3.57967303 0.86464708
v -2.24990993 3.89937467 0.99656924
v -2.18051472 3.96592193 0.73576306
v -2.32420034 3.70981128 0.61529298
v -2.92379259 5.18585985 0.46604168
v -2.96560141 5.08690235 0.53747701
v -2.32967000 4.53242685 0.49830780
v -2.07775926 4.49331958 0.59703574
v -2.07862030 4.55947366 0.35495971
v -2.05025754 5.81247907 0.46746843
v -2.02712403 5.87597705 0.29493670
v -1.95976598 5.91889272 0.40900640
v -1.63355561 5.19577061 0.50829280
v -1.61851769 5.19416336 0.31209296
v -1.75895038 5.04306010 0.39074917
v -2.15179772 5.70155478 0.24653787
v -2.21878319 5.63154340 0.37149652
v -2.28046949 5.58655274 0.19217557
v -1.98367977 4.84239959 0.36735871
v -2.59134553 5.45725739 -0.05090411
v -2.65132028 5.25227660 -0.08034277
v -2.12247399 4.63023377 -0.18116937
v 1.44264146 2.62309462 1.55084898
v 1.62284696 2.56493277 0.86996720
v 1.47660527 2.36342617 0.19298776
v -0.75481759 3.49488048 1.96639746
v -1.14668958 4.13340307 1.68375489
v -2.11453222 3.08150479 0.89463023
v -1.97381668 4.84323043 0.10058276
v -1.58152771 4.08123861 1.90509051
v -2.03008802 3.10185417 1.11459795
v -1.60432429 4.73345741 0.93125724
v -2.14584622 4.34874743 1.32713232
v -1.31395133 5.14419029 0.71382016
v 3.05847084 3.91833820 -0.30262529
v 3.04745506 3.82260838 -0.42023121
v 2.15524006 3.77195774 -0.46666153
v 2.13756855 3.77788113 -0.19144281
v 2.21307236 4.02047639 -0.38043726
v -1.67513360 2.35603947 0.34171207
v -2.21387583 3.78859156 1.53687281
v 1.96767961 4.17313732 -1.41762724
f 4 1 2
f 3 2 1
f 3 4 2
f 3 1 4
f 6 7 5
f 9 7 6
f 9 6 5
f 8 7 9
f 8 5 7
f 8 9 5
f 12 10 11
f 12 11 14
f 13 11 10
f 13 10 12
f 14 11 13
f 17 15 16
f 18 16 15
f 17 16 18
f 18 15 17
f 22 19 20
f 21 19 22
f 21 20 19
f 22 20 21
f 24 23 26
f 26 23 24
f 26 24 25
f 26 87 24
f 87 25 24
f 29 27 28
f 31 28 27
f 31 27 30
f 32 29 28
f 32 28 31
f 32 30 27
f 32 27 29
f 36 35 34
f 36 37 35
f 37 38 35
f 38 33 34
f 38 34 35
f 36 34 33
f 41 40 39
f 42 39 40
f 41 39 74
f 41 42 40
f 42 74 39
f 47 43 44
f 47 102 43
f 102 45 43
f 45 44 43
f 46 44 45
f 47 44 46
f 52 49 48
f 50 49 52
f 48 49 50
f 51 48 50
f 51 52 48
f 893 55 54
f 893 54 53
f 893 53 51
f 54 55 53
f 55 51 53
f 59 56 57
f 288 60 59
f 60 59 58
f 59 57 58
f 60 56 59
f 60 57 56
f 60 58 57
f 64 62 61
f 63 62 64
f 59 61 62
f 59 62 63
f 64 61 59
f 66 65 67
f 70 65 66
f 74 65 70
f 69 66 67
f 69 67 68
f 69 63 66
f 63 70 66
f 68 67 65
f 68 65 74
f 71 72 73
f 74 72 71
f 74 71 107
f 74 73 72
f 77 78 75
f 77 75 76
f 479 76 75
f 479 75 78
f 77 76 479
f 83 80 79
f 81 80 83
f 81 82 80
f 82 79 80
f 83 79 82
f 86 84 85
f 85 84 89
f 88 85 87
f 86 85 88
f 88 89 86
f 89 84 86
f 87 85 89
f 454 90 91
f 90 454 478
f 90 92 91
f 90 478 92
f 92 454 91
f 95 96 94
f 97 94 93
f 95 94 97
f 96 93 94
f 96 97 93
f 99 98 100
f 98 99 101
f 100 98 101
f 100 102 99
f 102 101 99
f 106 464 105
f 464 107 105
f 105 103 104
f 106 103 105
f 106 104 103
f 106 105 104
f 109 108 111
f 112 109 111
f 112 110 108
f 112 108 109
f 111 108 110
f 115 113 114
f 325 113 115
f 325 468 113
f 468 114 113
f 462 153 117
f 462 117 116
f 462 116 118
f 153 119 117
f 119 116 117
f 119 118 116
f 123 121 120
f 123 120 122
f 100 120 121
f 100 122 120
f 123 100 121
f 126 125 124
f 125 127 124
f 126 124 127
f 126 127 125
f 129 130 128
f 132 129 128
f 131 130 132
f 131 128 130
f 132 128 131
f 132 130 129
f 135 133 134
f 428 133 135
f 428 136 133
f 134 133 136
f 139 140 137
f 140 138 137
f 139 137 141
f 141 137 138
f 140 144 138
f 223 142 141
f 144 140 142
f 143 138 144
f 223 138 143
f 223 141 138
f 142 139 141
f 140 139 142
f 147 146 145
f 148 147 145
f 148 149 146
f 149 145 146
f 143 145 149
f 148 145 143
f 148 146 147
f 150 151 153
f 38 152 150
f 151 150 152
f 153 38 150
f 156 154 155
f 157 155 154
f 157 156 155
f 157 154 156
f 160 158 159
f 161 159 158
f 161 158 160
f 165 157 162
f 157 164 163
f 157 163 162
f 164 165 163
f 165 162 163
f 168 167 166
f 171 169 167
f 169 166 167
f 169 171 168
f 169 168 166
f 171 167 168
f 174 172 173
f 174 476 172
f 475 172 476
f 475 173 172
f 174 173 475
f 178 175 176
f 177 280 178
f 179 175 178
f 177 176 175
f 177 175 179
f 177 178 176
f 180 151 181
f 151 183 181
f 182 180 181
f 182 181 184
f 182 151 180
f 184 181 183
f 470 185 186
f 187 186 185
f 127 185 470
f 187 185 127
f 187 188 186
f 470 186 188
f 191 192 189
f 192 190 189
f 191 189 190
f 191 190 188
f 188 190 192
f 131 195 193
f 131 193 194
f 196 194 193
f 195 196 193
f 196 131 194
f 199 197 198
f 200 201 197
f 200 197 199
f 201 198 197
f 202 198 201
f 202 199 198
f 200 199 202
f 206 203 204
f 206 205 204
f 206 204 203
f 206 204 205
f 208 209 207
f 209 210 207
f 211 207 210
f 212 208 207
f 212 207 211
f 212 209 208
f 212 210 209
f 216 211 214
f 211 206 214
f 206 213 214
f 213 206 215
f 216 213 215
f 216 214 213
f 218 219 217
f 221 217 219
f 220 218 222
f 218 220 219
f 222 218 217
f 220 221 219
f 222 217 221
f 220 222 223
f 224 227 225
f 225 227 228
f 227 224 226
f 225 229 224
f 228 227 226
f 230 225 228
f 230 229 225
f 226 224 229
f 226 222 228
f 228 222 230
f 255 233 231
f 255 231 232
f 255 234 233
f 233 234 231
f 234 232 231
f 235 466 236
f 237 236 466
f 236 467 235
f 467 236 237
f 466 235 467
f 238 240 239
f 239 242 238
f 240 241 239
f 241 242 239
f 240 238 242
f 243 244 245
f 247 244 243
f 246 245 244
f 247 246 244
f 247 243 245
f 220 247 245
f 221 245 246
f 221 220 245
f 248 249 250
f 250 249 252
f 248 251 249
f 266 251 248
f 252 249 251
f 266 248 250
f 252 266 250
f 254 259 253
f 254 253 258
f 254 258 259
f 256 258 255
f 256 259 258
f 257 259 256
f 257 253 259
f 257 255 253
f 255 258 253
f 262 261 260
f 262 263 261
f 471 260 261
f 471 261 263
f 471 262 260
f 265 267 264
f 267 268 264
f 268 266 265
f 268 265 264
f 267 265 266
f 269 270 262
f 272 271 270
f 272 270 269
f 262 270 271
f 272 269 262
f 170 273 276
f 275 273 170
f 276 273 274
f 275 274 273
f 275 276 274
f 279 278 277
f 278 280 277
f 281 278 279
f 281 280 278
f 1052 277 280
f 1052 279 277
f 281 279 1052
f 284 283 282
f 285 283 284
f 427 283 285
f 427 470 282
f 427 282 283
f 470 284 282
f 287 290 286
f 286 289 287
f 288 286 290
f 289 290 287
f 289 286 288
f 294 291 292
f 293 291 294
f 295 292 291
f 293 295 291
f 294 292 295
f 894 295 293
f 77 297 296
f 299 297 77
f 298 296 297
f 298 297 299
f 77 296 92
f 298 92 296
f 302 300 301
f 192 301 300
f 179 302 301
f 302 192 300
f 179 301 192
f 306 303 212
f 306 305 304
f 212 303 304
f 212 304 305
f 306 304 303
f 309 308 307
f 308 69 307
f 309 307 464
f 463 308 309
f 464 307 69
f 463 309 464
f 463 69 308
f 313 311 310
f 313 310 312
f 313 352 311
f 465 312 310
f 352 310 311
f 465 310 352
f 316 315 314
f 312 315 316
f 312 465 315
f 465 316 314
f 465 314 315
f 320 319 318
f 320 318 317
f 320 317 318
f 320 318 319
f 324 322 321
f 325 321 322
f 324 321 323
f 324 325 322
f 321 325 323
f 326 327 329
f 329 328 326
f 328 327 326
f 328 329 327
f 332 331 330
f 333 331 332
f 333 330 331
f 333 332 330
f 337 334 336
f 337 335 334
f 336 334 335
f 339 340 338
f 340 341 338
f 341 339 338
f 343 344 342
f 345 343 342
f 345 344 343
f 345 342 344
f 349 346 347
f 349 348 346
f 347 346 348
f 354 351 353
f 354 355 351
f 355 350 351
f 355 352 350
f 353 351 350
f 353 350 352
f 361 357 356
f 359 356 357
f 359 358 356
f 358 361 356
f 361 360 357
f 360 361 358
f 360 359 357
f 363 364 362
f 365 363 362
f 365 362 359
f 365 364 363
f 359 362 364
f 369 368 366
f 367 366 368
f 369 366 367
f 367 368 369
f 374 370 371
f 374 371 469
f 370 374 372
f 373 469 371
f 372 374 469
f 372 373 371
f 372 371 370
f 375 377 376
f 377 365 376
f 376 365 375
f 377 375 365
f 378 379 380
f 378 382 379
f 380 379 382
f 381 378 380
f 381 382 378
f 381 380 382
f 384 385 383
f 386 385 384
f 384 383 937
f 383 385 387
f 383 387 937
f 937 386 384
f 386 387 385
f 387 935 937
f 389 390 388
f 392 390 389
f 390 392 391
f 391 388 390
f 388 391 389
f 392 389 391
f 396 393 394
f 395 393 396
f 395 394 393
f 396 394 395
f 398 403 397
f 397 399 398
f 399 400 398
f 404 387 400
f 387 401 400
f 400 401 398
f 403 398 401
f 403 402 397
f 397 404 399
f 404 400 399
f 402 403 401
f 404 397 402
f 405 406 410
f 409 408 406
f 407 405 410
f 408 410 406
f 407 410 408
f 409 405 407
f 409 406 405
f 413 412 411
f 472 414 412
f 413 411 414
f 472 412 413
f 414 411 412
f 418 415 416
f 417 415 418
f 417 418 416
f 417 416 415
f 422 423 419
f 422 419 420
f 285 420 419
f 421 420 285
f 421 422 420
f 285 419 423
f 424 425 426
f 427 424 426
f 427 428 425
f 427 425 424
f 426 425 428
f 430 432 429
f 432 421 429
f 421 430 429
f 431 430 421
f 431 432 430
f 434 435 437
f 437 435 433
f 436 435 434
f 437 433 435
f 437 435 436
f 440 438 439
f 438 440 443
f 438 443 441
f 441 439 438
f 441 442 439
f 442 440 439
f 443 440 442
f 446 444 445
f 473 446 477
f 446 473 444
f 473 477 445
f 473 445 444
f 477 446 445
f 448 449 447
f 448 450 449
f 447 449 450
f 450 448 447
f 452 454 453
f 298 451 454
f 452 451 298
f 453 451 452
f 453 454 451
f 457 455 456
f 456 455 474
f 457 456 474
f 457 474 455
f 461 458 459
f 460 459 458
f 461 460 458
f 461 459 460
f 47 46 33
f 38 153 462
f 144 142 118
f 144 118 119
f 33 462 47
f 462 33 38
f 47 462 102
f 118 101 102
f 118 102 462
f 46 36 33
f 46 30 36
f 118 132 101
f 118 142 132
f 131 101 132
f 157 101 156
f 196 156 131
f 131 156 101
f 200 202 142
f 200 142 223
f 202 131 132
f 202 132 142
f 131 202 201
f 32 25 36
f 32 36 30
f 37 36 25
f 41 32 31
f 101 157 100
f 45 31 30
f 45 30 46
f 74 42 73
f 123 45 102
f 123 102 100
f 201 195 131
f 156 196 205
f 122 45 123
f 64 59 50
f 78 87 26
f 26 52 78
f 78 52 51
f 78 51 479
f 51 55 479
f 50 59 60
f 50 60 51
f 51 60 295
f 295 60 294
f 894 893 51
f 894 51 295
f 288 294 60
f 288 59 289
f 289 59 63
f 69 463 290
f 69 290 289
f 69 289 63
f 74 107 68
f 107 464 68
f 68 464 69
f 463 811 290
f 312 316 313
f 320 465 319
f 45 122 41
f 45 41 31
f 122 42 41
f 226 223 222
f 223 143 220
f 223 226 200
f 200 226 229
f 200 229 201
f 232 222 221
f 232 221 255
f 232 234 230
f 232 230 222
f 252 251 229
f 252 229 230
f 256 221 246
f 221 256 255
f 271 246 247
f 402 271 272
f 271 134 136
f 271 136 262
f 134 271 247
f 247 135 134
f 143 149 220
f 220 149 247
f 119 126 143
f 119 143 144
f 148 143 126
f 148 126 127
f 237 251 266
f 365 467 364
f 195 201 466
f 195 466 241
f 365 466 467
f 242 196 195
f 242 195 240
f 205 196 242
f 335 242 241
f 242 335 206
f 242 206 205
f 335 337 206
f 206 211 210
f 205 210 156
f 210 205 206
f 216 212 211
f 206 337 215
f 337 216 215
f 212 305 111
f 212 111 110
f 164 157 156
f 164 156 210
f 165 164 110
f 110 164 210
f 110 210 212
f 216 344 212
f 344 306 212
f 344 340 345
f 344 216 337
f 344 337 340
f 160 159 122
f 160 122 100
f 95 73 42
f 95 42 122
f 122 96 95
f 122 159 161
f 122 161 96
f 100 157 165
f 100 165 160
f 160 165 110
f 160 110 112
f 112 96 161
f 112 161 160
f 112 111 97
f 112 97 96
f 111 115 114
f 111 114 97
f 111 305 115
f 306 325 115
f 306 115 305
f 323 325 306
f 325 324 319
f 320 333 316
f 333 320 319
f 333 319 324
f 344 345 306
f 329 324 323
f 324 329 333
f 306 345 323
f 323 345 329
f 345 328 329
f 345 340 328
f 340 337 336
f 340 336 341
f 341 336 368
f 373 372 367
f 373 367 368
f 368 336 373
f 358 359 364
f 467 358 364
f 247 149 135
f 234 392 230
f 230 392 391
f 230 391 252
f 252 391 267
f 252 267 266
f 395 391 392
f 395 267 391
f 395 360 358
f 396 395 386
f 382 234 255
f 382 392 234
f 386 381 387
f 387 381 401
f 382 255 257
f 382 257 381
f 381 257 401
f 401 257 256
f 402 401 256
f 404 402 272
f 408 409 935
f 408 935 387
f 387 404 408
f 404 272 408
f 407 408 272
f 441 422 432
f 428 135 426
f 426 135 149
f 426 149 148
f 126 119 153
f 127 182 184
f 187 127 184
f 184 191 187
f 191 188 187
f 191 184 183
f 426 148 470
f 426 470 427
f 427 285 428
f 423 136 428
f 428 285 423
f 421 432 422
f 442 441 432
f 443 442 418
f 285 284 421
f 284 188 421
f 188 284 470
f 421 188 192
f 421 192 431
f 88 87 78
f 478 77 92
f 478 88 78
f 478 78 77
f 478 89 88
f 81 87 89
f 83 25 87
f 83 87 81
f 25 83 37
f 347 55 893
f 347 893 349
f 77 479 299
f 83 82 37
f 37 82 152
f 37 152 38
f 442 432 434
f 442 434 437
f 442 437 418
f 437 417 418
f 434 473 436
f 347 348 299
f 298 299 348
f 452 298 348
f 92 298 454
f 457 454 452
f 454 457 474
f 461 460 474
f 474 448 454
f 89 169 174
f 89 174 81
f 302 179 178
f 171 177 169
f 177 171 276
f 276 171 170
f 478 454 448
f 478 448 450
f 280 276 275
f 280 275 1052
f 276 280 177
f 434 280 281
f 434 281 477
f 192 302 431
f 432 431 302
f 178 432 302
f 171 169 89
f 275 170 478
f 170 171 478
f 478 171 89
f 1052 478 450
f 275 478 1052
f 64 50 52
f 392 382 386
f 402 256 246
f 402 246 271
f 195 241 240
f 467 237 266
f 266 268 467
f 358 467 268
f 358 268 267
f 267 395 358
f 469 359 360
f 360 395 469
f 466 365 336
f 466 336 241
f 153 182 127
f 153 127 126
f 106 352 464
f 464 355 463
f 352 355 464
f 136 263 262
f 136 423 263
f 413 422 472
f 422 413 263
f 422 263 423
f 413 414 471
f 413 471 263
f 422 441 472
f 443 472 441
f 460 1049 477
f 479 55 347
f 479 347 299
f 26 25 32
f 26 32 64
f 26 64 52
f 63 74 70
f 41 74 64
f 64 74 63
f 41 64 32
f 481 482 480
f 482 481 483
f 482 484 480
f 483 481 480
f 532 482 483
f 532 484 482
f 506 483 480
f 487 486 485
f 516 486 487
f 516 550 486
f 550 485 486
f 550 559 485
f 559 487 485
f 490 489 488
f 506 492 491
f 491 488 493
f 492 490 488
f 492 488 491
f 492 493 489
f 492 489 490
f 493 488 489
f 496 494 495
f 495 494 499
f 497 496 495
f 497 495 498
f 497 499 494
f 497 494 496
f 498 495 499
f 502 501 500
f 501 503 500
f 506 501 502
f 503 502 500
f 506 502 505
f 506 503 501
f 503 504 502
f 504 505 502
f 506 491 503
f 491 504 503
f 509 508 507
f 512 507 508
f 510 508 509
f 507 511 509
f 512 511 507
f 510 509 511
f 512 508 510
f 516 534 514
f 516 514 513
f 513 514 533
f 533 514 534
f 515 513 533
f 515 516 513
f 518 519 517
f 521 522 519
f 520 517 515
f 521 518 517
f 521 517 520
f 521 519 518
f 519 522 517
f 522 515 517
f 524 525 523
f 526 523 525
f 527 528 526
f 528 523 526
f 528 524 523
f 529 524 528
f 529 525 524
f 529 526 525
f 534 532 531
f 534 531 530
f 533 530 531
f 533 531 540
f 534 530 533
f 540 531 532
f 537 536 535
f 537 538 536
f 546 535 536
f 546 536 541
f 539 538 537
f 539 537 581
f 539 540 538
f 540 541 536
f 540 536 538
f 581 537 535
f 581 535 580
f 580 535 546
f 544 545 543
f 542 543 545
f 546 543 542
f 580 542 545
f 546 542 580
f 546 544 543
f 549 548 547
f 1044 547 548
f 1044 548 550
f 549 547 1044
f 549 550 548
f 553 552 551
f 554 553 551
f 559 553 554
f 559 552 553
f 559 555 552
f 555 1037 552
f 1037 551 552
f 554 551 1037
f 561 556 557
f 557 556 558
f 558 561 559
f 560 557 558
f 560 561 557
f 558 556 561
f 566 563 562
f 565 562 564
f 565 566 562
f 564 562 563
f 563 1042 564
f 566 1042 563
f 570 568 567
f 570 567 592
f 570 569 568
f 569 571 568
f 571 567 568
f 592 567 571
f 573 572 575
f 573 574 572
f 575 572 574
f 512 573 575
f 512 574 573
f 848 578 545
f 580 545 578
f 843 578 848
f 843 579 578
f 843 581 579
f 581 580 578
f 581 578 579
f 578 576 577
f 578 577 576
f 579 577 578
f 579 578 577
f 583 582 584
f 584 582 586
f 584 585 583
f 585 587 583
f 587 582 583
f 587 586 582
f 589 588 593
f 591 593 588
f 589 593 592
f 590 591 588
f 591 592 593
f 590 588 589
f 597 594 596
f 597 596 595
f 600 596 594
f 598 595 596
f 601 595 598
f 601 598 630
f 599 595 601
f 599 630 600
f 630 598 600
f 595 599 594
f 595 594 597
f 599 600 594
f 598 596 600
f 606 603 602
f 607 603 606
f 605 607 606
f 604 602 603
f 604 603 575
f 604 605 602
f 605 606 602
f 607 575 603
f 610 609 608
f 609 611 608
f 611 612 608
f 610 608 612
f 611 609 610
f 614 613 615
f 618 613 614
f 617 614 615
f 618 616 613
f 616 615 613
f 617 615 616
f 617 618 614
f 621 619 620
f 994 619 621
f 620 619 622
f 994 622 619
f 624 625 623
f 626 624 623
f 626 623 629
f 625 624 631
f 626 631 624
f 629 623 627
f 627 623 625
f 630 629 627
f 627 625 628
f 630 626 629
f 630 631 626
f 631 628 625
f 634 633 632
f 635 634 632
f 638 632 633
f 637 634 635
f 636 632 638
f 636 635 632
f 637 635 636
f 637 682 634
f 682 633 634
f 682 638 633
f 640 674 639
f 674 641 639
f 643 642 640
f 643 640 639
f 674 640 642
f 641 643 639
f 647 645 644
f 647 646 645
f 647 644 646
f 646 644 645
f 650 648 649
f 651 649 648
f 651 648 650
f 652 653 656
f 647 652 656
f 647 654 653
f 647 653 652
f 654 655 653
f 656 653 655
f 657 658 659
f 661 662 660
f 662 658 657
f 660 658 662
f 660 659 658
f 660 657 659
f 660 662 657
f 664 663 666
f 664 1040 663
f 1040 665 663
f 666 663 665
f 666 1040 664
f 669 667 668
f 668 667 670
f 791 1051 669
f 670 669 668
f 1051 667 669
f 1051 670 667
f 672 673 671
f 671 673 675
f 672 674 673
f 1036 672 611
f 611 672 671
f 611 671 676
f 1036 674 672
f 674 675 673
f 676 671 675
f 679 678 677
f 679 677 682
f 679 680 678
f 680 681 678
f 682 677 678
f 682 678 681
f 685 686 684
f 684 683 685
f 824 683 684
f 687 686 685
f 686 824 684
f 680 683 824
f 680 685 683
f 680 687 685
f 687 688 686
f 688 824 686
f 616 691 689
f 616 689 690
f 616 690 692
f 692 690 689
f 691 692 689
f 695 694 693
f 696 697 694
f 697 693 694
f 698 695 693
f 696 694 695
f 696 695 698
f 698 693 697
f 700 701 699
f 701 702 699
f 703 700 699
f 714 704 701
f 714 701 700
f 704 702 701
f 703 699 702
f 714 700 703
f 705 707 706
f 708 705 706
f 707 705 710
f 710 705 708
f 717 707 710
f 709 706 707
f 709 707 717
f 709 708 706
f 709 710 708
f 713 712 711
f 716 717 712
f 716 712 713
f 717 714 712
f 714 711 712
f 711 714 715
f 716 711 715
f 716 713 711
f 720 718 719
f 719 721 720
f 721 725 720
f 723 719 718
f 725 722 720
f 722 718 720
f 723 718 722
f 724 719 723
f 724 721 719
f 724 725 721
f 722 725 726
f 727 723 722
f 727 724 723
f 725 724 727
f 729 730 728
f 729 731 730
f 730 733 728
f 734 731 729
f 733 731 732
f 733 730 731
f 734 728 733
f 734 729 728
f 732 731 734
f 727 733 732
f 733 727 739
f 739 734 733
f 760 734 739
f 760 732 734
f 737 735 736
f 738 736 735
f 765 735 737
f 765 738 735
f 738 739 736
f 737 736 739
f 742 743 740
f 742 740 741
f 743 744 740
f 744 741 740
f 742 741 744
f 747 745 746
f 747 748 745
f 747 746 749
f 748 1033 745
f 1033 749 746
f 1033 746 745
f 749 750 747
f 750 748 747
f 750 1033 748
f 752 751 753
f 752 753 754
f 755 753 751
f 756 754 753
f 755 751 752
f 755 756 753
f 726 752 754
f 755 752 726
f 722 754 756
f 722 726 754
f 757 758 759
f 759 758 762
f 757 760 758
f 761 760 757
f 762 758 760
f 761 757 759
f 762 761 759
f 763 764 771
f 770 764 763
f 770 763 769
f 766 769 765
f 766 770 769
f 767 764 770
f 767 770 766
f 767 768 771
f 767 771 764
f 768 765 763
f 768 763 771
f 765 769 763
f 773 772 774
f 775 773 774
f 773 775 772
f 776 772 775
f 774 772 776
f 779 778 777
f 778 780 777
f 781 782 777
f 782 779 777
f 782 780 779
f 780 778 779
f 781 777 780
f 787 784 783
f 785 784 787
f 785 783 784
f 785 786 783
f 786 787 783
f 790 789 788
f 661 788 791
f 1043 788 661
f 795 791 789
f 791 788 789
f 1043 790 788
f 1043 789 790
f 1043 795 789
f 792 796 793
f 794 792 793
f 794 796 792
f 795 793 796
f 794 793 795
f 798 797 801
f 798 800 797
f 800 798 799
f 801 797 800
f 801 799 798
f 804 803 802
f 803 805 802
f 527 804 802
f 803 804 806
f 527 802 805
f 806 807 803
f 807 805 803
f 527 806 804
f 810 808 809
f 816 810 809
f 811 808 810
f 811 809 808
f 811 816 809
f 816 812 813
f 815 813 812
f 354 814 813
f 816 813 814
f 816 815 812
f 815 354 813
f 819 817 818
f 820 818 1044
f 820 817 819
f 820 564 817
f 1044 818 564
f 820 819 818
f 817 564 818
f 824 821 822
f 823 822 821
f 823 821 670
f 823 824 822
f 670 821 688
f 824 688 821
f 827 825 826
f 828 825 831
f 828 830 826
f 830 829 827
f 830 827 826
f 831 825 827
f 831 827 829
f 828 826 825
f 833 832 834
f 836 833 834
f 807 832 833
f 836 834 835
f 539 834 832
f 835 834 539
f 807 833 836
f 807 539 832
f 839 837 840
f 838 837 839
f 838 839 841
f 837 838 842
f 840 841 839
f 843 841 840
f 842 838 841
f 842 843 837
f 843 840 837
f 845 846 844
f 847 845 844
f 848 847 844
f 847 846 845
f 841 846 847
f 841 848 846
f 848 844 846
f 851 850 849
f 851 849 853
f 851 854 850
f 854 852 849
f 854 849 850
f 853 849 852
f 857 856 855
f 859 857 855
f 857 859 856
f 856 858 855
f 859 855 858
f 859 590 856
f 856 590 858
f 860 861 863
f 862 861 860
f 864 860 863
f 864 865 862
f 864 862 860
f 865 861 862
f 865 863 861
f 868 866 867
f 869 866 868
f 870 867 866
f 868 867 870
f 869 870 866
f 871 875 872
f 873 871 872
f 874 875 871
f 875 873 872
f 874 871 873
f 879 877 876
f 878 876 877
f 878 879 876
f 881 882 880
f 883 884 881
f 883 881 880
f 884 882 881
f 883 880 882
f 889 885 886
f 887 885 889
f 887 888 885
f 886 885 888
f 894 891 893
f 891 890 893
f 894 895 891
f 895 892 890
f 895 890 891
f 893 890 892
f 902 897 896
f 899 896 897
f 899 901 896
f 901 902 896
f 902 898 897
f 900 902 901
f 902 900 898
f 898 899 897
f 903 905 904
f 906 904 905
f 905 903 908
f 908 903 907
f 907 903 904
f 908 906 905
f 907 904 906
f 909 913 910
f 909 910 911
f 913 911 910
f 912 909 911
f 913 909 912
f 919 914 915
f 919 915 916
f 914 919 1035
f 918 916 915
f 1035 919 916
f 917 914 1035
f 917 918 915
f 917 915 914
f 920 1034 921
f 1034 922 921
f 908 921 922
f 921 908 920
f 908 1034 920
f 924 929 923
f 924 923 925
f 925 926 924
f 929 924 926
f 929 927 923
f 925 923 927
f 928 926 925
f 927 929 926
f 928 925 927
f 933 932 930
f 932 931 930
f 934 931 932
f 934 932 936
f 931 934 930
f 937 930 934
f 937 933 930
f 936 932 933
f 936 933 935
f 935 933 937
f 938 940 939
f 939 941 938
f 941 946 938
f 940 938 946
f 941 939 942
f 943 939 940
f 941 942 946
f 946 943 940
f 942 939 943
f 964 942 943
f 964 943 944
f 945 942 964
f 942 945 946
f 946 944 943
f 948 949 947
f 952 949 948
f 952 950 949
f 950 947 949
f 951 947 950
f 947 951 948
f 952 948 951
f 954 958 953
f 956 957 953
f 956 953 958
f 957 955 953
f 955 954 953
f 954 955 956
f 956 958 954
f 959 961 960
f 964 959 960
f 959 962 961
f 963 961 962
f 961 963 965
f 961 965 960
f 965 964 960
f 964 962 959
f 970 966 972
f 966 970 971
f 967 971 970
f 967 970 969
f 968 966 971
f 968 971 967
f 968 972 966
f 968 969 970
f 968 970 972
f 976 977 974
f 975 973 1050
f 976 974 973
f 976 973 975
f 977 1050 973
f 977 973 974
f 978 979 982
f 981 978 980
f 981 979 978
f 982 979 981
f 982 980 978
f 984 983 985
f 988 983 984
f 988 984 987
f 988 985 983
f 986 985 988
f 986 1006 985
f 1006 987 984
f 1006 984 985
f 992 990 989
f 992 993 990
f 800 992 991
f 800 993 992
f 800 994 993
f 994 989 993
f 991 989 994
f 992 989 991
f 993 989 990
f 995 996 1041
f 997 996 995
f 997 986 996
f 998 996 986
f 1041 996 998
f 997 995 1041
f 1000 999 1002
f 1000 1002 1001
f 1002 999 1000
f 1002 1000 1001
f 1004 1005 1003
f 1005 1004 1007
f 1003 1006 1004
f 1005 1006 1003
f 1006 1007 1004
f 1010 1008 1009
f 1009 1008 1011
f 1008 1014 1011
f 1012 1009 1011
f 1012 1010 1009
f 1013 1010 1012
f 1014 1008 1010
f 1014 1010 1013
f 1017 1018 1016
f 1016 1018 1015
f 1019 1015 1018
f 1019 1017 1016
f 1019 1016 1015
f 1017 1019 1018
f 1021 1020 1022
f 1024 1025 1021
f 1023 1020 1025
f 1023 1022 1020
f 1024 1022 1023
f 1021 1022 1024
f 1021 1025 1020
f 1027 1026 1028
f 4 1028 1026
f 1026 1027 1025
f 1027 1028 1029
f 1039 1029 1028
f 1025 1027 1029
f 1025 4 1026
f 4 1039 1028
f 332 1031 1030
f 332 1032 1031
f 1032 1039 1031
f 1039 1030 1031
f 332 1030 1039
f 641 599 601
f 610 599 611
f 498 601 510
f 601 498 499
f 601 499 643
f 601 643 641
f 512 510 601
f 601 574 512
f 510 493 498
f 617 601 630
f 617 630 618
f 601 617 574
f 627 618 630
f 647 575 574
f 647 574 646
f 692 646 616
f 616 646 574
f 616 574 617
f 698 616 618
f 696 698 627
f 698 618 627
f 616 698 697
f 492 487 498
f 492 498 493
f 497 498 487
f 511 491 493
f 511 493 510
f 546 504 544
f 607 511 512
f 607 512 575
f 697 691 616
f 696 627 628
f 646 692 702
f 646 702 704
f 534 516 487
f 550 516 515
f 550 515 1044
f 515 522 1044
f 520 515 533
f 533 526 529
f 533 529 520
f 520 529 814
f 814 529 528
f 814 528 816
f 814 354 521
f 814 521 520
f 816 528 810
f 810 528 527
f 810 527 805
f 810 805 811
f 527 526 533
f 527 533 806
f 806 533 540
f 539 807 806
f 807 836 805
f 539 806 540
f 532 541 540
f 546 541 504
f 835 539 581
f 835 581 843
f 843 848 841
f 841 847 842
f 851 847 848
f 854 851 848
f 854 848 545
f 511 607 491
f 607 605 504
f 607 504 491
f 570 544 569
f 628 725 727
f 628 631 725
f 628 727 732
f 628 732 696
f 696 732 760
f 696 760 697
f 727 737 739
f 737 727 722
f 762 760 739
f 766 722 756
f 722 766 737
f 765 737 766
f 767 766 756
f 787 756 755
f 963 787 786
f 787 620 622
f 787 622 785
f 620 787 755
f 755 726 621
f 755 621 620
f 637 636 631
f 631 636 725
f 725 636 638
f 725 638 726
f 599 610 631
f 599 631 630
f 631 610 637
f 780 782 761
f 742 760 761
f 780 761 762
f 906 743 761
f 906 761 901
f 906 744 743
f 691 697 1033
f 691 1033 750
f 922 744 906
f 750 692 691
f 702 692 750
f 702 750 749
f 875 749 1033
f 875 1033 873
f 749 875 703
f 749 703 702
f 715 714 703
f 714 717 710
f 704 710 646
f 710 704 714
f 875 715 703
f 908 922 906
f 875 874 716
f 875 716 715
f 829 709 831
f 709 829 584
f 709 584 586
f 654 647 646
f 654 646 710
f 655 654 587
f 654 586 587
f 586 654 710
f 586 710 709
f 831 709 717
f 716 882 831
f 716 831 717
f 882 828 831
f 882 877 883
f 882 878 877
f 882 716 874
f 882 874 878
f 650 649 605
f 650 605 604
f 569 544 504
f 569 504 605
f 605 649 651
f 605 651 569
f 651 571 569
f 604 647 656
f 604 656 650
f 655 650 656
f 650 655 587
f 650 587 585
f 585 571 651
f 585 651 650
f 585 584 592
f 585 592 571
f 592 584 589
f 584 829 589
f 830 589 829
f 590 589 858
f 858 589 830
f 544 570 545
f 852 854 591
f 852 591 590
f 590 859 852
f 853 847 851
f 882 884 830
f 882 830 828
f 864 859 858
f 830 884 858
f 858 884 864
f 884 883 865
f 884 865 864
f 883 877 865
f 911 874 873
f 878 874 911
f 878 911 913
f 913 879 878
f 917 912 911
f 918 917 911
f 908 916 1034
f 901 899 907
f 901 907 906
f 726 638 621
f 951 739 738
f 951 738 952
f 739 951 762
f 762 951 780
f 951 950 781
f 951 781 780
f 955 950 952
f 955 952 956
f 955 781 950
f 901 957 900
f 957 898 900
f 926 738 765
f 927 926 765
f 928 952 738
f 928 738 926
f 944 928 964
f 962 964 928
f 962 928 927
f 927 765 768
f 927 768 962
f 962 768 767
f 963 962 767
f 965 963 786
f 968 945 964
f 968 964 969
f 964 965 969
f 965 786 967
f 965 967 969
f 967 786 785
f 946 945 934
f 622 774 785
f 785 774 776
f 994 621 991
f 991 621 638
f 991 638 682
f 682 637 610
f 682 610 612
f 611 599 1036
f 680 679 612
f 612 679 682
f 680 612 611
f 680 611 676
f 676 687 680
f 687 676 675
f 991 682 800
f 680 824 681
f 987 622 994
f 994 988 987
f 988 800 799
f 988 994 800
f 986 997 1006
f 976 1006 1005
f 1007 1006 997
f 1007 997 1041
f 1005 1007 980
f 988 799 986
f 998 986 799
f 799 681 824
f 799 824 998
f 681 799 801
f 559 550 558
f 558 550 549
f 1042 549 1044
f 1042 1044 564
f 1042 558 549
f 1042 560 558
f 1042 561 560
f 554 487 559
f 487 554 497
f 886 522 521
f 886 521 889
f 554 642 497
f 497 642 643
f 497 643 499
f 1037 674 642
f 1014 981 980
f 1014 980 1038
f 1011 1038 1001
f 886 888 820
f 1023 564 820
f 820 888 1023
f 1024 1023 888
f 564 1023 1025
f 1025 565 564
f 1025 1029 565
f 1029 566 565
f 1029 1019 566
f 666 675 1040
f 687 675 666
f 687 666 665
f 669 670 665
f 665 1040 662
f 823 670 1051
f 665 662 669
f 662 791 669
f 791 662 661
f 566 1019 1018
f 796 1051 791
f 796 791 795
f 794 1012 796
f 1002 1038 1041
f 998 824 823
f 998 823 1041
f 1007 1041 1038
f 1002 1001 1038
f 823 1051 1041
f 1043 1042 566
f 1043 661 1042
f 661 660 1042
f 1042 660 561
f 1043 566 1018
f 1043 794 795
f 1018 1013 1043
f 532 534 484
f 506 505 483
f 928 944 952
f 963 767 756
f 963 756 787
f 743 742 761
f 901 761 782
f 901 782 781
f 781 955 957
f 781 957 901
f 907 916 908
f 899 916 907
f 916 899 898
f 916 898 1035
f 898 957 1035
f 1033 922 1034
f 647 604 575
f 641 674 1036
f 641 1036 599
f 1037 555 1040
f 660 555 561
f 688 665 670
f 688 687 665
f 895 843 842
f 1050 775 774
f 1050 774 975
f 975 774 622
f 975 622 987
f 1051 796 1012
f 1043 1013 794
f 1044 522 886
f 1044 886 820
f 484 492 506
f 484 506 480
f 487 492 484
f 487 484 534
f 532 483 505
f 532 505 541
f 541 505 504
f 1045 1046 1049
f 1049 1046 1047
f 1049 1048 1045
f 1048 1046 1045
f 1047 1046 1048
f 1048 865 877
f 1049 865 1048
f 870 461 868
f 870 863 461
f 1048 877 879
f 1047 473 1049
f 863 460 461
f 1048 473 1047
f 879 913 417
f 912 417 913
f 912 418 417
f 418 912 414
f 912 917 414
f 472 418 414
f 472 443 418
f 1035 957 22
f 1035 22 21
f 471 21 262
f 262 21 272
f 917 1035 471
f 917 471 414
f 471 1035 21
f 272 21 407
f 409 407 21
f 409 21 22
f 409 22 957
f 409 957 956
f 956 936 409
f 935 409 936
f 934 945 17
f 934 17 18
f 18 396 386
f 18 386 934
f 945 968 17
f 18 17 12
f 17 968 12
f 968 967 12
f 396 18 12
f 396 12 14
f 14 395 396
f 395 14 469
f 785 13 12
f 785 12 967
f 785 776 775
f 785 775 13
f 469 14 13
f 977 980 982
f 987 1006 976
f 987 976 975
f 980 977 976
f 980 976 1005
f 1011 1014 1038
f 368 982 339
f 368 339 341
f 340 9 328
f 340 339 9
f 1014 8 981
f 1032 329 328
f 1039 1019 1029
f 354 353 521
f 889 521 353
f 889 353 352
f 889 352 313
f 889 313 887
f 887 313 316
f 887 3 4
f 887 4 888
f 316 3 887
f 888 4 1024
f 1024 4 1025
f 3 316 333
f 333 332 3
f 332 4 3
f 4 332 1039
f 473 1048 436
f 417 1048 879
f 417 437 1048
f 1048 437 436
f 815 463 355
f 815 355 354
f 815 816 811
f 815 811 463
f 811 288 290
f 836 835 293
f 836 293 288
f 836 288 805
f 843 895 835
f 293 835 895
f 293 895 894
f 893 892 349
f 842 348 349
f 842 349 892
f 348 842 847
f 868 847 869
f 853 869 847
f 869 853 870
f 870 853 852
f 870 852 859
f 863 870 859
f 859 864 863
f 865 1049 460
f 865 460 863
f 288 293 294
f 288 811 805
f 13 775 372
f 13 372 469
f 1007 1038 980
f 981 8 9
f 981 9 339
f 981 339 982
f 982 368 367
f 367 1050 982
f 372 1050 367
f 775 1050 372
f 1050 977 982
f 8 1014 1019
f 1018 1019 1013
f 457 452 868
f 868 474 457
f 452 348 868
f 868 348 847
f 392 386 395
f 1019 1039 1032
f 1032 328 9
f 1032 9 8
f 1032 8 1019
f 1014 1013 1019
f 1013 1012 794
f 381 386 382
f 386 937 934
f 934 936 946
f 946 936 956
f 956 944 946
f 956 952 944
f 153 151 182
f 81 174 82
f 174 475 183
f 476 174 169
f 476 169 177
f 177 475 476
f 177 179 475
f 192 475 179
f 475 192 191
f 191 183 475
f 174 183 151
f 174 151 152
f 1011 1001 1012
f 1012 1001 1002
f 1012 1002 1051
f 1051 1002 1041
f 127 470 148
f 545 591 854
f 570 592 591
f 545 570 591
f 660 662 1040
f 660 1040 555
f 559 561 555
f 554 1037 642
f 675 674 1037
f 675 1037 1040
f 71 73 107
f 152 82 174
f 178 434 432
f 280 434 178
f 742 697 760
f 744 1033 697
f 744 697 742
f 916 918 1034
f 911 873 1034
f 911 1034 918
f 744 922 1033
f 1033 1034 873
f 682 801 800
f 681 801 682
f 251 237 229
f 466 201 229
f 466 229 237
f 377 373 336
f 377 336 365
f 377 469 373
f 359 469 377
f 359 377 365
f 336 335 241
f 73 95 97
f 332 329 1032
f 332 333 329
f 319 468 325
f 97 114 73
f 114 468 73
f 468 319 73
f 352 106 465
f 105 107 106
f 319 465 107
f 73 319 107
f 316 465 320
f 107 465 106
f 473 434 477
f 1049 473 477
f 477 450 460
f 448 460 450
f 448 474 460
f 450 477 1052
f 1052 477 281
f 868 461 474
f 895 842 892

