# https://github.com/mikedh/trimesh
v -0.33043976 0.69130677 0.20257641
v 0.39328235 0.65006069 0.22274547
v -0.03122654 0.32219611 0.02466111
v 0.10067281 0.43537410 -0.00115390
v 0.11212910 0.57751026 0.22396586
v -0.09963353 0.61745785 0.22807100
v 0.09575224 0.66977375 0.30871243
v 0.17971317 0.85796847 0.36998871
v -0.10127090 0.83179249 0.58632891
v 0.32056263 0.82005434 0.48586696
v 0.37107635 0.43913990 0.27827517
v 0.05680974 0.28635753 0.15920604
v -0.25941047 0.87605913 0.45674412
v -0.08506911 0.95638131 0.43301376
v 0.20550638 0.91878040 0.42234485
v 0.43969473 0.59978786 0.31901995
v -0.18781321 0.44212663 0.02977019
v -0.04642302 0.75436298 0.33829771
v 0.27760681 0.57022340 0.13375971
v -0.18901967 0.56629100 0.10609716
v 0.02943445 0.95034131 0.55460652
v 0.34804879 0.49169716 0.10633498
v 0.26820391 0.38071411 0.07305977
v -0.38144646 0.61550983 0.28164752
v -0.29989451 0.68050716 0.45658473
v 0.34662311 0.63754285 0.47181459
v 0.17082514 0.83383582 0.57468031
v 0.18061004 0.29944665 0.09312750
v 0.08105098 0.64945631 0.35685129
v -0.26403564 0.44050371 0.28028926
v -0.02291358 0.60200095 0.30025640
v 0.04111975 0.75423870 0.54149642
v 0.29249153 0.46672057 0.31717264
v 0.13760657 0.51161584 0.27059293
v -0.21001716 0.68599135 0.46556254
v 0.20934630 0.67865380 0.49929752
v -0.27555706 0.40254384 0.13168414
v 0.84602455 -0.20531444 0.81127756
v 0.57511534 0.06235866 0.72069455
v 0.14497359 0.01678587 0.83759587
v 0.13611866 -0.21670990 1.08963529
v 0.49005837 -0.45785627 1.19164393
v 0.70727043 -0.40355431 1.07819775
v 0.50224468 -0.17382144 0.84782309
v 0.76858768 -0.36042003 0.73626794
v 0.09730292 -0.17160600 0.77957158
v 0.04837014 -0.24380160 0.89930185
v 0.44212595 -0.59762915 1.05384128
v 0.69136618 -0.54198019 0.93834891
v 0.43347181 -0.18171543 0.78425384
v 0.25768071 -0.53007604 1.02450936
v 0.56779385 -0.53881521 0.95505502
v 0.20138914 -0.41741868 1.17800152
v 0.83629549 -0.36142912 0.94544284
v 0.33012918 -0.16339730 0.90314140
v 0.41393930 -0.32250202 1.00729976
v 0.74354718 -0.07265493 0.80791274
v 0.57976177 -0.30751035 0.96328237
v 0.34142176 0.02244028 0.82567293
v 0.21594358 0.03282320 0.71190971
v 0.04227553 -0.20063507 0.98194459
v 0.11116053 -0.42449319 1.04710301
v 0.45350946 -0.57548383 1.15097300
v 0.72104216 -0.06489960 0.64116519
v 0.66892563 -0.18423399 0.62400070
v 0.28708625 0.00800148 0.63277308
v 0.54186212 -0.32108681 0.87567503
v 0.46172485 -0.08156584 0.59541359
v 0.27323065 -0.19962610 0.81219972
v 0.35680177 -0.32472678 0.92807451
v 0.46348086 0.07904385 0.63809925
v 0.72351848 -0.52283428 1.03791133
v 0.41875480 -0.88591533 0.32684154
v 0.02205164 -0.64797793 0.65181042
v 0.49258060 -0.49417760 0.19531300
v 0.00967327 -0.29882700 0.57656002
v -0.08487450 -0.80765377 0.49166485
v 0.18839980 -0.83284269 0.21767892
v 0.16359258 -0.55249810 0.43456695
v 0.57399898 -0.33195340 0.43707919
v 0.37691584 -0.26519354 0.61197868
v 0.09171049 -0.36754416 0.72571010
v -0.08050531 -0.47335596 0.66866039
v -0.02993985 -0.72213411 0.64655804
v 0.19528788 -0.94741676 0.41937656
v 0.38902875 -0.55497836 0.40872335
v 0.30033903 -0.71521873 0.39631685
v 0.23811531 -0.50756543 0.48888059
v 0.13932518 -0.57735285 0.51555610
v 0.08369898 -0.86575547 0.54651118
v 0.51597443 -0.69385670 0.36135349
v 0.47888955 -0.39200384 0.51296102
v 0.60732548 -0.44997827 0.26534029
v -0.11598088 -0.62469690 0.62329404
v 0.06342441 -0.91671482 0.31697550
v 0.43971215 -0.88395947 0.24311475
v 0.44599454 -0.72421002 0.14935787
v 0.44083801 -0.28459540 0.32886345
v 0.35186199 -0.18564520 0.47119021
v -0.12253012 -0.53315299 0.49752455
v 0.31380211 -0.47472202 0.39238457
v 0.28062169 -0.64382073 0.32791360
v -0.06178772 -0.69029133 0.41330231
v 0.13826580 -0.28591960 0.49093341
v 0.59979851 -0.68177028 0.28520534
v 0.21034789 -0.20948928 0.62221546
v 0.25488782 -0.94487090 0.22759485
v -0.19647172 -0.34741196 0.72488137
v -0.42854049 -0.24690910 0.77884313
v -0.47806531 -0.29817395 0.96401826
v -0.60457582 -0.37968109 1.25310610
v -0.78877764 -0.02860587 0.72953608
v -0.78680629 0.06450921 0.89734271
v -0.84570954 -0.09645389 1.06751737
v -0.36899697 -0.54232503 1.12500081
v -0.34156191 -0.59948429 0.91391588
v -0.52553726 -0.34789361 0.95697820
v -0.68932674 -0.07766354 0.58907765
v -0.81373456 -0.19455945 1.05317456
v -0.49684510 -0.06107603 0.49855852
v -0.32222059 -0.16727917 0.51708441
v -0.58747083 0.06866857 0.66190204
v -0.65854828 -0.04754244 1.11696346
v -0.66009071 0.05638166 0.90974069
v -0.64581958 -0.19707330 1.24090672
v -0.41327935 -0.35749659 1.19148118
v -0.24912029 -0.42630513 1.02030692
v -0.56363102 -0.16066177 0.89263227
v -0.40853521 -0.08737990 0.61624750
v -0.65944999 0.05385390 0.61608893
v -0.22662193 -0.55278709 0.80055183
v -0.49327628 -0.24754117 0.48466072
v -0.74274641 -0.30311498 1.18407697
v -0.63369569 -0.20372465 0.90491540
v -0.44630269 -0.35845245 0.80680063
v -0.55601120 -0.20432466 0.75255598
v -0.47968377 -0.53012211 1.01533080
v -0.37513375 -0.45588874 0.63134647
v -0.56064990 -0.50528853 1.13748835
v -0.26419430 -0.37891819 0.55733376
v -0.53403225 0.58472349 0.41341946
v -0.14484478 0.36770830 0.92564825
v -0.33840209 0.19575961 0.72088804
v -0.38501020 0.40862876 0.73764176
v -0.35490589 0.65379783 0.74123891
v -0.44256946 0.69146302 0.52460509
v -0.48606439 0.45546641 0.50290637
v -0.38326277 0.96456154 0.69830558
v -0.61679805 0.74410850 0.47078984
v -0.50090354 0.92622957 0.69810334
v -0.25686527 0.90762688 0.89589471
v -0.14571474 0.65029471 1.05956411
v -0.36532096 0.13342388 0.84757695
v -0.60885542 0.21268710 0.70332374
v -0.52752046 0.83037885 0.48326913
v -0.22445069 0.88957203 0.77630612
v -0.09556614 0.64867423 0.97094037
v -0.24299443 0.21561768 0.93521497
v -0.46513324 0.19006417 0.58408070
v -0.53792977 0.34937505 0.46566881
v -0.43333645 0.60848100 0.64992470
v -0.27899179 0.55036865 0.83757093
v -0.38226225 0.84002006 0.55156688
v -0.18506372 0.78503670 0.81913295
v -0.22706207 0.80162143 1.02017509
v -0.48203498 0.13741232 0.72594329
v -0.62852621 0.36683145 0.46675325
v -0.64541829 0.59502571 0.43598674
v -0.61808348 0.81298341 0.58464476
v -0.59011211 0.80009105 0.64732276
v -0.39924583 0.92561542 0.84734540
v -0.67770424 0.38591872 0.54730655
v -0.46092885 0.59094134 0.71344481
v -0.40798339 0.69502656 0.78958168
v -0.48451770 0.43424799 0.72992942
v -0.35906534 0.50302424 0.87854824
v -0.35864975 0.41732664 0.96135552
v -0.57782139 0.27852048 0.75190574
v -0.62717596 0.49312877 0.62772121
v -0.35568036 0.80201896 0.93865795
v -0.25733797 0.55632413 1.09725164
v -0.46529871 0.21339202 0.90069757
v -0.68848199 0.60586857 0.54207264
v -0.19709756 0.33814938 1.04277831
v -0.14132116 0.48935642 1.06527115
v -0.32296732 0.26875864 1.02968575
f 1 13 14
f 14 21 15
f 2 15 10
f 2 10 16
f 22 23 4
f 4 3 17
f 1 17 37
f 7 6 18
f 7 5 6
f 8 7 18
f 8 18 15
f 7 19 5
f 19 4 5
f 6 5 4
f 20 6 4
f 18 6 20
f 14 18 1
f 15 18 14
f 19 7 8
f 2 19 8
f 2 8 15
f 2 22 19
f 22 4 19
f 17 20 4
f 1 18 20
f 17 1 20
f 13 1 24
f 21 14 13
f 21 10 15
f 22 2 16
f 3 4 28
f 28 4 23
f 37 24 1
f 27 9 26
f 10 27 26
f 11 16 26
f 12 28 11
f 3 28 12
f 37 3 12
f 30 37 12
f 25 24 30
f 29 31 34
f 31 29 32
f 31 32 35
f 29 36 32
f 29 34 33
f 36 29 33
f 31 30 34
f 30 31 35
f 25 32 9
f 35 32 25
f 32 36 26
f 32 26 9
f 26 33 11
f 26 36 33
f 11 33 12
f 33 34 12
f 34 30 12
f 35 25 30
f 25 9 13
f 25 13 24
f 9 27 21
f 9 21 13
f 27 10 21
f 10 26 16
f 11 28 23
f 22 11 23
f 16 11 22
f 3 37 17
f 30 24 37
f 39 71 40
f 40 61 41
f 42 72 43
f 43 72 54
f 44 55 56
f 56 58 44
f 59 44 57
f 59 55 44
f 41 55 59
f 56 55 41
f 42 56 41
f 42 58 56
f 43 57 44
f 43 44 58
f 39 59 57
f 39 40 59
f 41 59 40
f 42 41 53
f 43 58 42
f 54 38 57
f 54 57 43
f 64 39 57
f 64 57 38
f 71 39 64
f 60 40 71
f 61 62 53
f 61 53 41
f 63 42 53
f 72 42 63
f 65 64 45
f 71 64 65
f 71 65 68
f 66 71 68
f 66 68 46
f 62 47 46
f 50 70 69
f 50 67 70
f 67 50 68
f 67 68 65
f 70 51 69
f 70 67 52
f 70 52 51
f 52 67 65
f 68 50 46
f 50 69 46
f 46 51 62
f 69 51 46
f 51 52 48
f 52 49 48
f 52 45 49
f 52 65 45
f 45 64 38
f 66 46 40
f 66 40 60
f 66 60 71
f 40 47 61
f 46 47 40
f 62 51 53
f 47 62 61
f 51 48 63
f 51 63 53
f 48 49 72
f 48 72 63
f 45 38 54
f 49 45 54
f 49 54 72
f 73 96 105
f 80 105 93
f 83 94 84
f 84 82 83
f 85 107 73
f 88 87 86
f 88 89 87
f 86 87 91
f 92 86 91
f 92 88 86
f 88 74 89
f 90 89 74
f 90 87 89
f 105 91 73
f 105 80 92
f 105 92 91
f 81 92 80
f 82 88 92
f 82 92 81
f 74 88 82
f 84 74 82
f 90 74 84
f 91 87 73
f 73 87 90
f 73 90 85
f 106 81 99
f 99 81 80
f 106 82 81
f 77 90 84
f 77 84 94
f 95 107 85
f 77 95 85
f 77 85 90
f 96 73 107
f 93 75 98
f 83 76 100
f 103 77 100
f 95 77 103
f 78 107 95
f 97 107 78
f 102 78 79
f 101 102 79
f 102 101 75
f 104 101 79
f 104 79 103
f 102 75 78
f 75 101 98
f 98 104 99
f 101 104 98
f 104 76 99
f 104 100 76
f 104 103 100
f 103 78 95
f 103 79 78
f 78 75 97
f 97 75 93
f 97 93 105
f 97 105 96
f 93 98 80
f 98 99 80
f 106 76 82
f 99 76 106
f 83 100 94
f 76 83 82
f 94 100 77
f 96 107 97
f 121 120 122
f 122 130 113
f 122 113 124
f 124 113 123
f 126 115 127
f 108 127 131
f 109 129 128
f 110 109 128
f 124 128 129
f 123 128 124
f 110 128 123
f 126 110 123
f 127 110 126
f 108 109 110
f 108 110 127
f 129 109 108
f 121 122 129
f 122 124 129
f 125 126 123
f 121 129 108
f 130 122 120
f 114 123 113
f 125 123 114
f 115 126 111
f 111 126 125
f 115 131 127
f 140 108 131
f 140 121 108
f 114 113 112
f 133 114 119
f 139 111 133
f 116 115 139
f 131 116 138
f 140 131 138
f 140 138 132
f 136 117 134
f 136 135 117
f 136 134 118
f 134 119 118
f 119 134 117
f 117 137 119
f 117 135 137
f 135 138 137
f 138 135 136
f 138 136 132
f 132 136 118
f 112 118 119
f 112 119 114
f 119 139 133
f 119 137 139
f 139 137 116
f 137 138 116
f 120 132 118
f 120 118 130
f 132 120 121
f 112 113 130
f 118 112 130
f 133 111 125
f 114 133 125
f 139 115 111
f 115 116 131
f 140 132 121
f 163 155 148
f 163 141 155
f 163 148 156
f 157 152 185
f 157 185 142
f 143 158 153
f 142 158 143
f 143 153 159
f 141 160 167
f 145 162 144
f 145 144 161
f 146 163 161
f 161 164 145
f 163 164 161
f 164 162 145
f 164 142 162
f 142 144 162
f 143 144 142
f 147 161 144
f 147 144 143
f 147 146 161
f 141 163 146
f 163 156 164
f 157 164 156
f 157 142 164
f 159 147 143
f 141 146 147
f 159 141 147
f 160 141 159
f 151 156 148
f 152 157 165
f 165 157 156
f 165 156 151
f 184 142 185
f 184 158 142
f 153 166 159
f 167 160 159
f 149 155 141
f 149 141 168
f 167 168 141
f 150 169 170
f 165 151 171
f 181 152 165
f 153 186 182
f 154 153 182
f 172 154 183
f 149 183 169
f 173 176 174
f 175 176 173
f 170 173 174
f 170 174 180
f 180 174 176
f 176 177 180
f 176 175 177
f 175 178 177
f 175 179 178
f 179 173 170
f 175 173 179
f 150 170 180
f 150 180 171
f 165 180 181
f 171 180 165
f 180 177 181
f 181 182 186
f 177 182 181
f 182 178 154
f 177 178 182
f 178 183 154
f 178 179 183
f 183 179 170
f 183 170 169
f 155 169 150
f 155 150 148
f 149 169 155
f 148 171 151
f 150 171 148
f 181 186 184
f 181 184 185
f 152 181 185
f 186 153 158
f 184 186 158
f 166 154 159
f 153 154 166
f 154 167 159
f 154 172 167
f 183 149 168
f 172 183 168
f 172 168 167

