# https://github.com/mikedh/trimesh
v -0.28676066 0.74672379 0.24440137
v 0.38957530 0.61785347 0.20027934
v 0.25283906 0.42090898 0.05514113
v 0.29624303 0.50731103 0.08652535
v -0.02700862 0.38074426 0.00167952
v 0.03812002 0.43430390 0.00268866
v -0.12056877 0.66182064 0.25447666
v 0.12303206 0.73122711 0.33363973
v 0.04464480 0.53429279 0.15556432
v -0.05666404 0.57897138 0.19599281
v 0.01906977 0.64898341 0.28556412
v 0.11860794 0.85637867 0.37484739
v 0.24125530 0.82334136 0.34452791
v 0.02453563 0.48858415 0.06132757
v -0.17109129 0.57616877 0.12661929
v 0.34975672 0.79451186 0.43625192
v -0.33990942 0.64658049 0.38800236
v -0.17286574 0.81465956 0.55543530
v 0.10276156 0.85490189 0.58312613
v 0.34241155 0.74696887 0.48158867
v 0.36728016 0.48905121 0.33831306
v 0.18317067 0.32387922 0.19609956
v 0.25434889 0.33604467 0.16158615
v -0.03079458 0.30700556 0.05196829
v -0.27302238 0.42365722 0.22836350
v -0.09049967 0.62615995 0.34858659
v -0.08022238 0.68496943 0.41226549
v -0.18883899 0.48406685 0.29141768
v -0.28002306 0.84120965 0.37223193
v -0.15325042 0.92181106 0.40841309
v -0.22069650 0.85066260 0.33352412
v -0.33820076 0.73526613 0.27674460
v 0.10965144 0.94662047 0.44335800
v -0.02891241 0.96300572 0.45923915
v 0.30825427 0.82522265 0.36578778
v 0.22290822 0.90656864 0.43120550
v 0.41746738 0.67693102 0.36262489
v 0.36704431 0.72796935 0.28516342
v 0.12073308 0.38074217 0.00910360
v -0.22985484 0.51902051 0.06824526
v -0.16296684 0.43262965 0.03281991
v -0.32883724 0.62805555 0.16991119
v -0.03355948 0.75220506 0.34086670
v 0.19580028 0.65716335 0.26334831
v 0.15662300 0.57236467 0.19289910
v 0.02686481 0.68456277 0.31017185
v 0.08241412 0.63500558 0.27872312
v -0.19822784 0.76861805 0.28181144
v -0.09790482 0.85016472 0.35454044
v 0.24528144 0.73637394 0.29300018
v 0.21074205 0.54015237 0.11695884
v 0.02553554 0.91578431 0.40246472
v 0.30743731 0.67695945 0.22432677
v 0.25155567 0.52066785 0.08858970
v -0.18420568 0.53327927 0.07586114
v -0.30477339 0.80610402 0.43234046
v -0.04985824 0.93644918 0.55059544
v 0.42934018 0.54695765 0.28305331
v 0.37095702 0.46711802 0.15141480
v 0.26872302 0.36469789 0.09485759
v -0.17847313 0.38095826 0.06224556
v -0.36628436 0.55988500 0.24058290
v -0.28179032 0.75323601 0.47892335
v 0.01759255 0.81679593 0.58717908
v -0.04557849 0.86797924 0.58445802
v 0.29086096 0.69431747 0.51341061
v 0.22949111 0.80083347 0.55171474
v 0.37117527 0.60400149 0.43237725
v 0.36142942 0.42074066 0.22122743
v -0.06039520 0.30634245 0.15938828
v 0.12663338 0.30771453 0.05967736
v 0.10883481 0.29701236 0.15736679
v -0.17056839 0.34209256 0.14672271
v -0.31783757 0.52152751 0.31497866
v 0.01518894 0.69104213 0.41458303
v 0.08658177 0.66164262 0.38385222
v 0.15139828 0.63292698 0.37673388
v 0.17078558 0.54909205 0.30881519
v 0.09076879 0.49728923 0.25515122
v -0.01435644 0.47432038 0.24051095
v -0.12643894 0.53723820 0.29414624
v 0.02557718 0.61745965 0.32335046
v -0.02097146 0.53863927 0.27156943
v -0.14113251 0.70936353 0.47666315
v 0.03945104 0.74396179 0.52354211
v 0.29271237 0.51616960 0.36240760
v 0.24236871 0.41104989 0.26932736
v 0.05500192 0.37314404 0.21294851
v -0.26301771 0.68143266 0.46507669
v -0.25091052 0.59577977 0.39382111
v 0.03048764 0.77702883 0.56067287
v 0.20934630 0.67865380 0.49929752
v 0.29070175 0.59452625 0.43529601
v -0.14902268 0.39781114 0.23852155
v -0.19514920 0.90297141 0.49822153
v -0.36599691 0.69266096 0.33336301
v 0.10764607 0.93542061 0.54218863
v 0.24540089 0.86933545 0.51374671
v -0.30251352 0.46258338 0.13202072
v -0.18043000 0.35637000 0.09685000
v 0.82035967 -0.18010063 0.84074780
v 0.47194729 0.06795883 0.75108016
v 0.18265492 0.00496047 0.87831901
v 0.09154088 -0.22490756 1.05878477
v 0.12088649 -0.13599811 1.01312972
v 0.54266014 -0.50896129 1.16488095
v 0.53739725 -0.44406003 1.15956035
v 0.73186764 -0.36111133 1.03684687
v 0.58795066 -0.21951849 0.88309412
v 0.45351968 -0.11440192 0.83461261
v 0.35158679 -0.12695981 0.87617851
v 0.30140401 -0.19964236 0.95352513
v 0.36587903 -0.28876098 0.99673724
v 0.45902038 -0.34497433 1.02772926
v 0.46921507 -0.23675429 0.90214555
v 0.27418030 -0.04945481 0.89216759
v 0.51118726 -0.39859566 1.11398452
v 0.36245701 0.06768956 0.66185793
v 0.79361384 -0.28099775 0.71815576
v 0.72743222 -0.34485279 0.72956910
v 0.65984638 -0.02508215 0.62528012
v 0.11475524 -0.10061299 0.75977015
v 0.06879413 -0.31617574 0.94716018
v 0.23825480 -0.52343945 1.05358698
v 0.50907634 -0.59480540 1.03442562
v 0.72824003 -0.50021466 0.89132275
v 0.50998192 -0.27778638 0.84941653
v 0.45876629 -0.16658546 0.74890524
v 0.55707531 -0.36876281 0.88606840
v 0.44089729 -0.22870559 0.83383827
v 0.34871501 -0.09539465 0.64647918
v 0.23156317 -0.46221478 0.98112540
v 0.62282268 -0.50674402 0.90913256
v 0.65433615 0.01639029 0.72653308
v 0.74061372 -0.08629046 0.81000066
v 0.76355084 -0.08008359 0.75401972
v 0.37665277 0.08033245 0.72081860
v 0.52130537 0.07133515 0.69935729
v 0.24209784 0.05508291 0.78115226
v 0.28280448 -0.40437757 1.18349497
v 0.15780354 -0.32436652 1.14118823
v 0.40744115 -0.46980846 1.19615690
v 0.66745926 -0.44497561 1.11031600
v 0.83909521 -0.33516094 0.89590962
v 0.80997819 -0.28026131 0.93651240
v 0.53215481 -0.15168905 0.83982358
v 0.57379165 -0.30637822 0.95977297
v 0.40438131 -0.22390272 0.91448509
v 0.46102000 -0.27214000 0.93871000
v 0.70666938 -0.15452531 0.86115189
v 0.67147572 -0.32569142 1.01052298
v 0.74560354 -0.26337203 0.95365460
v 0.61003075 -0.01619432 0.78763523
v 0.48283448 0.01880430 0.79271346
v 0.24701517 -0.00254342 0.87727798
v 0.18782805 -0.16469036 1.02479532
v 0.26101819 -0.31326184 1.12642660
v 0.51622219 0.05692013 0.63770122
v 0.21594358 0.03282320 0.71190971
v 0.06198831 -0.12909839 0.93057235
v 0.05366330 -0.26730529 1.01334412
v 0.11508593 -0.39258328 1.09077871
v 0.37430206 -0.55496821 1.15419085
v 0.78216515 -0.42367198 1.01071349
v 0.83017728 -0.37539303 0.85290749
v 0.60767950 -0.10348346 0.59579836
v 0.76888027 -0.12416700 0.67614635
v 0.70959842 -0.18988385 0.64102148
v 0.34630674 0.01775938 0.61771174
v 0.43267418 -0.04308460 0.58954285
v 0.17841661 -0.11966050 0.71367269
v 0.21539653 -0.02815985 0.67519126
v 0.10138679 -0.29653668 0.88181375
v 0.13511923 -0.43322035 1.00847807
v 0.36998276 -0.57941216 1.06062032
v 0.63579443 -0.56701194 0.97611130
v 0.77001818 -0.40826694 0.78970138
v 0.57426463 -0.27027953 0.80307886
v 0.30062337 -0.20610460 0.82340633
v 0.36526567 -0.29096739 0.90127324
v 0.41199982 -0.32905129 0.91814026
v 0.55047498 -0.14019896 0.62761463
v 0.66797198 -0.32288782 0.74295983
v 0.46383424 -0.12631636 0.65181339
v 0.26447286 -0.14104538 0.72420988
v 0.18060785 -0.26636719 0.85051926
v 0.26841624 -0.32318351 0.91479070
v 0.44439465 -0.50799748 0.97471811
v 0.37429520 -0.41002570 0.95933600
v 0.50376210 -0.40120547 0.92835393
v 0.64085047 -0.22263478 0.67035853
v 0.42413937 -0.55466774 1.00323930
v 0.83673006 -0.23518112 0.77123719
v 0.50198776 0.01778312 0.59855954
v 0.11058814 -0.02865399 0.81301193
v 0.05615713 -0.19044935 0.86488431
v 0.23099853 -0.48288262 1.15433550
v 0.53019839 -0.57274599 1.12903146
v 0.77573110 -0.47854527 0.95841603
v 0.67405518 -0.53717163 1.07403299
v 0.60228696 -0.57610172 0.35628813
v 0.47270914 -0.82095678 0.32875476
v 0.31108091 -0.27255255 0.64395119
v 0.07273000 -0.84735000 0.55215000
v 0.22966115 -0.48522724 0.51948180
v 0.12111176 -0.59817180 0.54115089
v 0.15141182 -0.65835489 0.50043041
v 0.25487583 -0.63831723 0.43016664
v 0.46191759 -0.42684050 0.49765661
v 0.13621000 -0.46436000 0.65520000
v 0.05785000 -0.63377000 0.62586000
v 0.09123993 -0.74050521 0.57694604
v -0.12820655 -0.61408904 0.59569725
v 0.21866000 -0.95385000 0.28043000
v 0.45426148 -0.79254766 0.17941478
v 0.50157000 -0.50340000 0.20468000
v 0.55220289 -0.50798771 0.21131863
v 0.43270000 -0.29286000 0.33349000
v 0.46921365 -0.27390005 0.35491100
v 0.24305358 -0.20097764 0.51986060
v -0.01399571 -0.34020447 0.55020446
v -0.00935687 -0.33306791 0.62465813
v -0.11654000 -0.57543000 0.49025000
v -0.03834359 -0.82601866 0.40833447
v 0.17650000 -0.85568000 0.22356000
v 0.20000016 -0.93295061 0.25035806
v 0.33766215 -0.42709326 0.37516461
v 0.23136691 -0.40063501 0.44322698
v 0.12874131 -0.46695292 0.46130632
v 0.12650448 -0.64772156 0.39517938
v 0.23574375 -0.67668442 0.32815750
v 0.26862548 -0.53924824 0.39394334
v 0.56429773 -0.69965231 0.32944788
v 0.49658045 -0.82208556 0.27311181
v 0.52875865 -0.35150847 0.49393545
v 0.60030296 -0.44120485 0.39948576
v 0.43460859 -0.28060093 0.57142355
v 0.08864938 -0.40606006 0.71158366
v 0.19611575 -0.35739173 0.68862305
v 0.17730689 -0.29659925 0.68702799
v -0.03578153 -0.50229766 0.69258288
v -0.02680033 -0.63111825 0.67483387
v 0.03475038 -0.86647096 0.53396981
v -0.01384732 -0.76799283 0.61921361
v 0.27273715 -0.93829945 0.37989298
v 0.14406852 -0.92820316 0.45765348
v 0.39619033 -0.90236527 0.31549712
v 0.38617453 -0.59526140 0.39631113
v 0.39139817 -0.50390176 0.44278273
v 0.30296136 -0.45201594 0.51532537
v 0.26033425 -0.73780413 0.42206444
v 0.33018354 -0.70018153 0.38703596
v 0.24374563 -0.56102767 0.45661403
v 0.22917000 -0.60531000 0.45109000
v 0.45549126 -0.77263878 0.36060630
v 0.51471373 -0.60179974 0.39287002
v 0.50188217 -0.49793524 0.44271564
v 0.40866969 -0.37213050 0.56321777
v 0.14512599 -0.52848462 0.55157170
v 0.22218677 -0.41122124 0.63181675
v 0.08336394 -0.54675991 0.63828882
v 0.19945000 -0.82955000 0.47866000
v 0.36434926 -0.81264892 0.38111304
v 0.55734621 -0.61819139 0.37432422
v 0.53099435 -0.43246077 0.46868668
v 0.31423158 -0.35729746 0.62261298
v 0.03241335 -0.57365439 0.67230881
v 0.07231550 -0.78767085 0.58318890
v 0.24523502 -0.88298308 0.43799071
v 0.48213387 -0.81500112 0.21840974
v 0.61661174 -0.54896506 0.29422554
v 0.57630317 -0.69134142 0.25879509
v 0.59132249 -0.39260724 0.31909569
v 0.53674495 -0.29891966 0.44214791
v 0.42137793 -0.22085297 0.51712094
v 0.13846472 -0.24646787 0.64456919
v 0.02589861 -0.35560995 0.69065166
v -0.07782210 -0.47815253 0.65996627
v -0.09374259 -0.63496093 0.64067285
v -0.08333553 -0.75945838 0.56729373
v 0.08511277 -0.93883661 0.36948708
v 0.23754255 -0.96165801 0.31279877
v 0.36240468 -0.91270277 0.23370291
v 0.39774041 -0.73576055 0.15522547
v 0.45938000 -0.61815000 0.17019000
v 0.50889100 -0.63839321 0.17569184
v 0.46666609 -0.37703178 0.26992981
v 0.53640688 -0.37949212 0.27257069
v 0.26867322 -0.22264853 0.45759743
v 0.36877332 -0.21176711 0.44155526
v 0.10628000 -0.26622000 0.52483000
v 0.10945407 -0.24357173 0.57462766
v -0.13579346 -0.59186106 0.53455961
v -0.09429823 -0.45383315 0.53405482
v -0.08146489 -0.72256340 0.43001836
v -0.10887200 -0.72056676 0.48294180
v 0.06512000 -0.84294000 0.29524000
v 0.18338000 -0.89337000 0.22833000
v 0.06335243 -0.89043340 0.31024988
v 0.29262000 -0.81621000 0.17641000
v 0.31952378 -0.86525232 0.18050421
v 0.31468851 -0.52602952 0.36961086
v 0.28823944 -0.41366663 0.41474527
v 0.06654513 -0.55855108 0.44414057
v 0.25494000 -0.63139000 0.34866000
v 0.26210111 -0.58060209 0.37736641
v 0.19489669 -0.45051354 0.45023709
v 0.17739510 -0.59232885 0.40752782
v 0.44332715 -0.50524629 0.22973352
v 0.37597891 -0.62398589 0.21272463
v 0.32168261 -0.61681949 0.30375912
v 0.42173000 -0.42516000 0.28444000
v 0.37419315 -0.50989189 0.32010255
v 0.21918486 -0.30870827 0.44949147
v 0.35297961 -0.33515455 0.36590664
v -0.03362019 -0.51042044 0.46633437
v 0.03072108 -0.71776477 0.36931108
v -0.02266150 -0.65221678 0.41434161
v 0.18700407 -0.76980751 0.26021035
v 0.10086527 -0.75798761 0.32071332
v 0.26721885 -0.69540080 0.28051631
v 0.38683029 -0.66507598 0.17557144
v 0.26457456 -0.25611081 0.44035281
v 0.01792203 -0.38353616 0.49332923
v 0.12021996 -0.30222008 0.48864932
v -0.07409109 -0.50624794 0.48003004
v -0.02609897 -0.73750723 0.38592341
v 0.12751289 -0.81934323 0.26004597
v 0.27178660 -0.76343238 0.20376058
v 0.59874175 -0.52708012 0.24601890
v 0.55548933 -0.67149293 0.20926829
v 0.51783604 -0.27659336 0.39898273
v 0.27942353 -0.20001776 0.58409696
v 0.40072000 -0.20846000 0.48356000
v -0.09926635 -0.46107536 0.61371308
v -0.02188295 -0.86651494 0.47222269
v -0.10213000 -0.74493000 0.52958000
v 0.34489000 -0.89621000 0.20523000
v -0.57267577 0.04123749 0.60686552
v -0.53836000 0.03308000 0.64792000
v -0.68183501 0.07494317 0.87245800
v -0.54837000 -0.24574000 1.21778000
v -0.22211000 -0.43811000 0.92839000
v -0.20758876 -0.36047445 0.65747594
v -0.21533000 -0.33010000 0.69216000
v -0.42722002 -0.14393673 0.69651107
v -0.51371357 -0.08024149 0.74752947
v -0.47611965 -0.17431202 0.76573116
v -0.51915019 -0.19458771 0.85093414
v -0.57608783 -0.15746300 0.94426459
v -0.52690500 -0.24128242 1.05012427
v -0.55791292 -0.20210159 1.00059272
v -0.47748092 -0.29144825 0.99578905
v -0.41080900 -0.33091007 0.94006687
v -0.49611000 -0.23550000 0.87430000
v -0.61543810 0.00054478 0.87729947
v -0.48374829 -0.28064726 1.13324617
v -0.27543720 -0.29629710 0.74212051
v -0.75740701 0.07279554 0.84175227
v -0.78381317 -0.06994946 1.11848865
v -0.62970910 -0.31423012 1.25305444
v -0.23334099 -0.41534381 0.62115409
v -0.44573294 -0.23444929 0.47404564
v -0.48378178 -0.26370724 0.50793018
v -0.66826000 -0.09400000 0.58707000
v -0.81379647 -0.05095162 0.81126115
v -0.80098779 0.02704712 0.82195903
v -0.82941151 -0.15285167 1.05441715
v -0.81830865 -0.10582073 1.09874566
v -0.68187838 -0.37704259 1.18423115
v -0.66273816 -0.35060904 1.22932358
v -0.48844426 -0.54507114 1.08694554
v -0.43698049 -0.53287486 1.14581636
v -0.36235000 -0.57249000 0.85766000
v -0.28234169 -0.57779620 0.88198521
v -0.34648213 -0.45467829 0.61369672
v -0.27840828 -0.44463559 0.60787366
v -0.60560602 -0.20977359 0.86478092
v -0.59380207 -0.30999890 0.98983736
v -0.47357024 -0.37278006 0.88158163
v -0.53631107 -0.24670761 0.82165810
v -0.66394629 -0.12720789 0.62878746
v -0.49863000 -0.26950000 0.57763000
v -0.76045637 -0.09967669 0.77069857
v -0.78705504 -0.19258863 1.00742157
v -0.67506814 -0.37433716 1.11642213
v -0.46846192 -0.05127764 0.53184246
v -0.36482532 -0.11765131 0.55977404
v -0.34879000 -0.14277000 0.53965000
v -0.62985562 0.08144378 0.73796501
v -0.74158768 0.03374371 0.99843602
v -0.72503880 -0.04953624 1.12291099
v -0.67508085 0.01502700 1.00827139
v -0.58347807 -0.27337613 1.24854081
v -0.65662064 -0.08715118 1.14843869
v -0.66530449 -0.15632402 1.20838073
v -0.47761644 -0.37834067 1.22989131
v -0.35573757 -0.41712334 1.15051383
v -0.45577000 -0.33935000 1.20316000
v -0.21514000 -0.47514000 0.92405000
v -0.27545000 -0.43197000 1.04965000
v -0.27573562 -0.48197612 1.05699086
v -0.20127868 -0.48228999 0.76239658
v -0.19262448 -0.41892419 0.79217631
v -0.26415000 -0.23396000 0.61495000
v -0.26242062 -0.25766144 0.57281626
v -0.55972239 -0.11196163 0.83640501
v -0.58813355 -0.14761858 0.98717955
v -0.35622673 -0.34867852 0.90257677
v -0.35871327 -0.30384306 0.80521094
v -0.42661541 -0.24379962 0.78708996
v -0.44511236 -0.26123022 0.83138225
v -0.50836000 -0.24151000 0.91922000
v -0.46401000 -0.26955000 0.87864000
v -0.45901622 -0.06611993 0.66765165
v -0.57323521 -0.00031121 0.79188614
v -0.63339821 -0.02626357 0.97282349
v -0.62061583 -0.08500753 1.05467661
v -0.58760812 -0.15628471 1.14453859
v -0.42605068 -0.33029585 1.01551219
v -0.29903123 -0.38991568 1.01815943
v -0.23323171 -0.35388174 0.78679572
v -0.32206125 -0.21212682 0.67637286
v -0.31840596 -0.17256227 0.62156253
v -0.46367851 -0.03598213 0.63310042
v -0.62152409 0.04922774 0.82326829
v -0.48747082 -0.28637251 1.18376111
v -0.36315188 -0.36935505 1.10341361
v -0.25014269 -0.39662342 0.91965061
v -0.37428381 -0.16955577 0.49248505
v -0.50943544 -0.07783482 0.49176647
v -0.61977008 0.01619628 0.56693371
v -0.72146505 0.04670205 0.68395350
v -0.68394571 0.07681385 0.70431367
v -0.79631742 0.01389695 0.98625348
v -0.71618395 -0.18676424 1.21226799
v -0.38818315 -0.48546258 1.16555837
v -0.31616308 -0.55788461 1.04281957
v -0.23001414 -0.53313150 0.90790701
v -0.23203658 -0.51780278 0.74431669
v -0.29043770 -0.30009762 0.52943860
v -0.57191000 -0.16505000 0.52184000
v -0.65842411 -0.04271528 0.56616664
v -0.55043640 -0.13216029 0.49628689
v -0.75070000 -0.05893000 0.68460000
v -0.74766909 -0.00231260 0.67701484
v -0.82952000 -0.09883000 0.93045000
v -0.83879410 -0.06163998 0.94999695
v -0.76455000 -0.27137000 1.12115000
v -0.76331354 -0.24661931 1.16889860
v -0.57488412 -0.46769381 1.18512356
v -0.32681000 -0.58208000 0.86748000
v -0.35845000 -0.58185000 1.01752000
v -0.40558419 -0.58277440 0.98431128
v -0.28472745 -0.53721640 0.73104335
v -0.39529060 -0.35912581 0.53559889
v -0.53120324 -0.23252543 0.73733006
v -0.51575447 -0.24426997 0.66767502
v -0.61095685 -0.16929236 0.75041646
v -0.66637859 -0.22937214 0.96382139
v -0.54964267 -0.34744005 0.97729574
v -0.46539228 -0.33060954 0.79441556
v -0.43257232 -0.41627800 0.83424199
v -0.45240259 -0.32869778 0.72080992
v -0.59771408 -0.23915304 0.91280399
v -0.51404806 -0.31090648 0.88745619
v -0.49320103 -0.29244456 0.80312661
v -0.57150786 -0.19967859 0.60202983
v -0.71009828 -0.11879044 0.72328853
v -0.67569032 -0.16493938 0.86066097
v -0.57025321 -0.43989630 1.05693032
v -0.43151146 -0.51226205 0.90237404
v -0.49315009 -0.39845269 0.94261993
v -0.41081567 -0.41581583 0.68222105
v -0.39745766 -0.47459980 0.75633216
v -0.79224346 -0.13720257 0.91099855
v -0.72784998 -0.28298956 1.06339409
v -0.58995314 -0.47058207 1.12102857
v -0.41156848 -0.55463258 0.91211855
v -0.35544515 -0.51354335 0.71689486
v -0.43464100 -0.35899679 0.59359909
v -0.40760000 -0.20046000 0.47383000
v -0.82065000 -0.01168000 0.97373000
v -0.74411000 -0.21487000 1.19840000
v -0.52622464 -0.42935111 1.23310433
v -0.33282097 -0.33099006 0.51769660
v -0.35991212 0.88097499 0.59731411
v -0.48617819 0.67829576 0.45203247
v -0.19525000 0.83061000 0.80396000
v -0.15776078 0.34462989 0.98140533
v -0.16490227 0.35517338 0.91324993
v -0.29658405 0.21286348 0.77343215
v -0.41167057 0.61077161 0.67509427
v -0.34422274 0.68154046 0.73334464
v -0.36763015 0.47401277 0.75835706
v -0.37863723 0.56590103 0.73606796
v -0.45760593 0.65861774 0.50649694
v -0.22676831 0.35624617 0.85192933
v -0.31447000 0.27778000 0.75424000
v -0.40948207 0.29330495 0.63559442
v -0.48496125 0.51713009 0.49275168
v -0.41886314 0.93601538 0.62647441
v -0.23797059 0.90126619 0.87920770
v -0.12547310 0.64435337 1.03080023
v -0.54871598 0.19330673 0.59987608
v -0.63131579 0.74587060 0.49582067
v -0.51243858 0.90565669 0.70811331
v -0.46785257 0.93915527 0.66626256
v -0.35019299 0.87795968 0.91963982
v -0.28147596 0.90396364 0.90626580
v -0.25329927 0.65113584 1.07333032
v -0.18041126 0.65190435 1.07297159
v -0.31416000 0.37682000 1.05342000
v -0.27171425 0.35380005 1.06578053
v -0.46864833 0.19678444 0.88421848
v -0.40031257 0.14373717 0.86605254
v -0.62182140 0.25051456 0.68050739
v -0.59370124 0.20926318 0.63618384
v -0.68313604 0.46011017 0.52517023
v -0.34124920 0.60418634 0.91819301
v -0.40250482 0.45264554 0.83626694
v -0.43627551 0.42778268 0.80038509
v -0.51004590 0.41135663 0.72792924
v -0.41742247 0.53860553 0.77591223
v -0.52135692 0.84580674 0.72372274
v -0.60548746 0.68836552 0.62917730
v -0.33186342 0.69106482 0.97124168
v -0.58724778 0.27992015 0.74024048
v -0.43960930 0.81522741 0.50700303
v -0.53899912 0.72870044 0.43952466
v -0.28750027 0.91933563 0.72273512
v -0.19894586 0.86698110 0.83519027
v -0.27163000 0.87383000 0.70172000
v -0.13903206 0.76828602 0.93222318
v -0.10829419 0.62196632 0.96118482
v -0.13941000 0.74033000 0.88853000
v -0.12851908 0.48657418 1.04245503
v -0.11456477 0.48180243 0.97182317
v -0.21992000 0.25807000 0.86848000
v -0.22819156 0.23259531 0.90711445
v -0.41605630 0.15652445 0.68973106
v -0.46783210 0.22838237 0.57098979
v -0.38637000 0.19572000 0.67113000
v -0.53752647 0.44577489 0.44098784
v -0.49648973 0.34869593 0.49627974
v -0.55204202 0.30817774 0.49072780
v -0.58180671 0.58721456 0.41231103
v -0.52678000 0.57668000 0.42668000
v -0.44208381 0.59077899 0.61953668
v -0.38932109 0.70758369 0.64894700
v -0.26934365 0.53671701 0.84054254
v -0.34508400 0.38364896 0.76990937
v -0.40292505 0.36876790 0.69112770
v -0.40423760 0.45143052 0.70973029
v -0.42068222 0.52407257 0.68039832
v -0.45076187 0.48274196 0.61142243
v -0.33533211 0.52940533 0.78942745
v -0.40858235 0.73594102 0.55877792
v -0.27070144 0.78671941 0.72924986
v -0.29892877 0.69017200 0.76960116
v -0.18720000 0.69263000 0.84246000
v -0.26689945 0.61992446 0.82561817
v -0.14416647 0.49246511 0.91557723
v -0.26315904 0.44226878 0.84288636
v -0.46418670 0.38440835 0.54344109
v -0.37395989 0.80418487 0.57426454
v -0.23593774 0.82565755 0.74670604
v -0.14131884 0.64818712 0.89281593
v -0.40670963 0.24149159 0.63182607
v -0.59301165 0.74205972 0.45630785
v -0.53889871 0.86671851 0.54214100
v -0.49371536 0.85455624 0.51543781
v -0.34129018 0.95658870 0.76572996
v -0.18320697 0.79611824 0.99109666
v -0.26312453 0.21323692 0.95294898
v -0.33129064 0.15226508 0.81776510
v -0.47105520 0.13822430 0.72019530
v -0.61214967 0.43839269 0.43852442
v -0.61521979 0.29733584 0.51985792
v -0.64541829 0.59502571 0.43598674
v -0.65071096 0.73597412 0.55943839
v -0.59986687 0.80453516 0.63231228
v -0.57667155 0.85799741 0.59021809
v -0.43182000 0.90886000 0.81841000
v -0.40508496 0.94105041 0.80440340
v -0.29746000 0.77037000 1.00931000
v -0.25336107 0.79047874 1.01498662
v -0.27355000 0.51025000 1.08123000
v -0.22390561 0.50166089 1.09564751
v -0.34240555 0.23339207 0.99148675
v -0.55713000 0.21227000 0.78002000
v -0.53842020 0.17141499 0.76427541
v -0.66020000 0.35703000 0.62081000
v -0.65873221 0.32582035 0.57946249
v -0.67710000 0.60112000 0.55579000
v -0.68108386 0.60551053 0.50186090
v -0.46387868 0.71713286 0.73435590
v -0.50357276 0.64944805 0.68468220
v -0.42819784 0.72912442 0.78100781
v -0.37442790 0.61311443 0.84149863
v -0.37900286 0.68537447 0.84297897
v -0.47469139 0.37392279 0.78432464
v -0.52353226 0.49450762 0.68636550
v -0.50815046 0.54599442 0.68606050
v -0.42730247 0.57770944 0.75644386
v -0.36082999 0.53441075 0.87348221
v -0.44613467 0.48595712 0.75747850
v -0.56268084 0.76438652 0.66915704
v -0.39980851 0.80378058 0.86602374
v -0.35698983 0.41616493 0.98540436
v -0.32430653 0.51971826 1.00565852
v -0.44079631 0.30752812 0.90307513
v -0.38823383 0.42443561 0.88357487
v -0.54092725 0.29603631 0.77918612
v -0.61615446 0.44335903 0.65070909
v -0.62300530 0.59317092 0.62118367
v -0.40555298 0.86472252 0.86821188
v -0.30653202 0.70113640 1.01761369
v -0.31000196 0.46394306 1.05242833
v -0.40848932 0.26952015 0.96407439
v -0.67148769 0.48037933 0.58982934
v -0.19709756 0.33814938 1.04277831
v -0.16452125 0.49240468 1.08051138
v -0.30039000 0.21624000 0.97619000
v -0.50077000 0.14476000 0.73933000
v -0.65680729 0.44323877 0.47008165
f 29 95 30
f 31 29 30
f 1 32 29
f 1 29 31
f 30 95 34
f 34 97 33
f 33 97 36
f 35 36 16
f 38 35 16
f 38 16 37
f 38 37 2
f 2 59 4
f 4 59 3
f 6 39 5
f 4 3 39
f 4 39 6
f 40 41 99
f 6 5 41
f 6 41 40
f 42 40 99
f 42 32 1
f 47 8 44
f 47 44 45
f 9 47 45
f 46 43 8
f 11 7 43
f 11 43 46
f 11 46 47
f 46 8 47
f 11 10 7
f 11 47 10
f 47 9 10
f 49 43 48
f 48 43 7
f 12 8 43
f 52 43 49
f 12 43 52
f 50 8 12
f 13 50 12
f 50 53 44
f 50 44 8
f 53 51 45
f 53 45 44
f 51 9 45
f 51 14 9
f 10 9 14
f 15 10 14
f 7 10 15
f 48 7 15
f 31 49 48
f 31 48 1
f 52 49 31
f 34 52 31
f 34 31 30
f 33 52 34
f 13 12 52
f 36 13 52
f 36 52 33
f 35 13 36
f 53 50 13
f 38 53 13
f 38 13 35
f 38 2 53
f 53 54 51
f 2 4 54
f 2 54 53
f 54 6 14
f 54 14 51
f 4 6 54
f 55 15 14
f 55 14 6
f 40 55 6
f 1 48 15
f 55 1 15
f 40 42 1
f 40 1 55
f 95 29 56
f 56 29 32
f 56 32 96
f 97 34 57
f 57 34 95
f 98 16 36
f 97 98 36
f 58 2 37
f 60 3 59
f 59 2 58
f 24 5 39
f 24 39 71
f 71 39 3
f 71 3 60
f 61 99 41
f 61 41 5
f 61 5 24
f 96 32 42
f 96 42 62
f 99 62 42
f 63 17 89
f 18 63 89
f 65 18 64
f 19 65 64
f 67 19 64
f 67 64 66
f 20 67 66
f 68 20 66
f 21 58 68
f 69 58 21
f 22 23 69
f 22 69 21
f 72 71 23
f 72 23 22
f 24 71 72
f 24 72 70
f 73 24 70
f 25 73 70
f 62 25 74
f 17 74 89
f 17 62 74
f 78 77 76
f 83 80 79
f 83 81 80
f 81 83 26
f 82 75 27
f 82 27 26
f 82 76 75
f 82 78 76
f 82 79 78
f 82 83 79
f 82 26 83
f 26 27 84
f 26 84 90
f 75 76 85
f 27 75 85
f 27 85 84
f 76 77 92
f 76 92 85
f 77 78 86
f 93 77 86
f 92 77 93
f 87 78 79
f 86 78 87
f 88 79 80
f 87 79 88
f 94 80 81
f 94 81 28
f 80 94 88
f 81 26 90
f 81 90 28
f 90 84 89
f 89 91 64
f 89 64 18
f 84 85 91
f 84 91 89
f 91 92 66
f 91 66 64
f 85 92 91
f 68 93 86
f 68 86 21
f 66 92 93
f 66 93 68
f 21 87 22
f 21 86 87
f 72 22 70
f 87 88 22
f 70 94 25
f 22 94 70
f 88 94 22
f 90 89 74
f 94 90 74
f 94 74 25
f 94 28 90
f 63 18 95
f 63 95 56
f 17 63 56
f 17 56 96
f 65 19 97
f 65 97 57
f 18 65 57
f 18 57 95
f 67 20 98
f 98 20 16
f 19 67 98
f 19 98 97
f 37 68 58
f 20 37 16
f 20 68 37
f 69 23 60
f 59 69 60
f 58 69 59
f 60 23 71
f 73 25 99
f 73 99 100
f 100 99 61
f 24 100 61
f 24 73 100
f 62 17 96
f 25 62 99
f 135 136 134
f 101 136 135
f 102 138 137
f 134 138 102
f 139 195 103
f 102 137 139
f 102 139 103
f 103 195 160
f 103 160 105
f 104 105 160
f 141 197 140
f 141 105 104
f 140 197 142
f 142 106 107
f 106 200 143
f 143 200 164
f 143 164 108
f 107 106 143
f 164 144 145
f 145 144 101
f 108 164 145
f 115 146 110
f 115 109 146
f 148 111 112
f 115 110 111
f 115 111 148
f 149 113 114
f 115 148 113
f 115 113 149
f 148 112 113
f 115 147 109
f 149 114 147
f 149 147 115
f 150 146 109
f 153 146 150
f 154 110 146
f 154 146 153
f 154 111 110
f 154 116 111
f 112 111 116
f 156 112 116
f 113 112 156
f 157 113 156
f 114 113 157
f 117 114 157
f 117 147 114
f 151 147 117
f 152 150 109
f 152 109 147
f 151 152 147
f 153 150 135
f 134 153 135
f 102 154 153
f 102 153 134
f 154 155 116
f 102 103 155
f 102 155 154
f 156 116 155
f 105 156 155
f 105 155 103
f 105 141 157
f 105 157 156
f 140 157 141
f 107 117 157
f 142 107 157
f 142 157 140
f 108 151 117
f 108 117 107
f 143 108 107
f 152 135 150
f 108 152 151
f 108 145 152
f 145 101 135
f 145 135 152
f 121 134 136
f 121 136 167
f 167 136 101
f 167 101 193
f 118 137 138
f 118 138 158
f 158 138 134
f 158 134 121
f 195 139 159
f 159 139 137
f 159 137 118
f 161 104 160
f 197 141 162
f 161 162 141
f 161 141 104
f 198 106 142
f 198 142 163
f 163 142 197
f 200 106 198
f 199 164 200
f 193 101 144
f 165 144 164
f 165 164 199
f 193 144 165
f 168 167 119
f 168 119 120
f 121 167 168
f 121 168 166
f 194 121 166
f 194 166 170
f 169 194 170
f 172 169 170
f 172 170 171
f 122 172 171
f 196 122 171
f 196 171 173
f 123 196 173
f 174 123 173
f 120 119 177
f 128 178 127
f 180 187 179
f 189 187 180
f 189 180 181
f 190 189 181
f 178 129 127
f 130 128 127
f 130 180 179
f 130 179 128
f 130 181 180
f 127 129 190
f 181 127 190
f 130 127 181
f 178 128 182
f 178 182 191
f 178 191 183
f 184 128 131
f 128 184 182
f 128 185 131
f 128 179 185
f 179 187 186
f 179 186 185
f 187 189 132
f 187 132 186
f 189 190 188
f 189 188 132
f 190 129 133
f 188 190 133
f 133 129 183
f 129 178 183
f 191 182 166
f 191 166 168
f 120 191 168
f 183 191 120
f 184 131 182
f 182 131 170
f 182 170 166
f 131 171 170
f 131 185 171
f 185 186 173
f 185 173 171
f 132 124 174
f 173 132 174
f 186 132 173
f 192 125 175
f 132 192 175
f 132 175 124
f 132 188 192
f 133 126 176
f 192 133 176
f 192 176 125
f 188 133 192
f 133 120 177
f 133 177 126
f 133 183 120
f 119 167 193
f 194 169 118
f 194 118 158
f 121 194 158
f 172 122 195
f 172 195 159
f 169 159 118
f 169 172 159
f 196 123 161
f 196 161 160
f 195 196 160
f 122 196 195
f 174 124 197
f 174 197 162
f 123 174 162
f 123 162 161
f 175 125 198
f 175 198 163
f 124 175 163
f 124 163 197
f 176 126 199
f 176 199 200
f 125 176 200
f 125 200 198
f 177 119 193
f 177 193 165
f 126 177 165
f 126 165 199
f 234 272 233
f 201 233 272
f 201 272 271
f 202 234 233
f 236 201 271
f 236 274 235
f 235 274 237
f 238 240 277
f 238 239 240
f 203 240 239
f 241 238 277
f 241 279 242
f 242 238 241
f 242 279 244
f 244 243 204
f 245 246 282
f 246 204 243
f 245 282 247
f 247 234 202
f 207 251 208
f 208 251 252
f 253 248 249
f 253 250 205
f 253 249 250
f 253 259 206
f 253 206 207
f 253 207 254
f 205 259 253
f 253 208 252
f 253 252 248
f 253 254 208
f 254 207 208
f 248 252 255
f 256 248 255
f 209 249 257
f 257 249 248
f 257 248 256
f 258 250 249
f 258 249 209
f 258 266 250
f 260 259 205
f 260 205 250
f 260 250 266
f 210 259 260
f 261 206 259
f 210 261 259
f 261 211 206
f 206 212 207
f 211 212 206
f 262 207 212
f 262 269 251
f 262 251 207
f 255 252 263
f 251 263 252
f 263 251 269
f 264 256 255
f 233 264 255
f 233 255 202
f 233 201 264
f 265 209 257
f 264 265 257
f 264 257 256
f 201 236 265
f 201 265 264
f 235 265 236
f 258 209 265
f 237 258 265
f 237 265 235
f 203 266 258
f 203 258 237
f 239 210 260
f 239 260 266
f 239 266 203
f 267 211 261
f 267 261 210
f 267 210 239
f 242 267 239
f 242 239 238
f 268 212 211
f 268 211 267
f 244 268 267
f 244 267 242
f 204 268 244
f 269 262 212
f 269 212 268
f 204 246 269
f 204 269 268
f 246 245 269
f 255 263 202
f 202 263 269
f 247 202 269
f 247 269 245
f 272 234 270
f 331 272 270
f 331 330 271
f 331 271 272
f 274 236 273
f 271 273 236
f 330 273 271
f 332 274 273
f 333 203 237
f 333 237 275
f 275 237 274
f 275 274 332
f 276 277 240
f 276 240 203
f 276 203 333
f 279 241 278
f 277 278 241
f 213 279 278
f 336 243 244
f 336 244 280
f 280 244 279
f 280 279 213
f 281 282 246
f 336 281 246
f 336 246 243
f 281 214 282
f 270 234 247
f 270 247 283
f 283 247 282
f 283 282 214
f 286 215 284
f 286 284 285
f 216 217 286
f 216 286 285
f 288 217 216
f 288 216 287
f 219 288 287
f 219 287 218
f 290 219 218
f 290 218 289
f 220 290 289
f 292 220 289
f 292 289 291
f 221 292 291
f 222 292 221
f 335 222 221
f 335 221 294
f 293 294 223
f 293 335 294
f 295 296 293
f 295 293 223
f 224 296 295
f 299 224 295
f 299 295 297
f 225 298 299
f 225 299 297
f 226 299 298
f 301 226 298
f 301 298 225
f 301 225 300
f 284 301 300
f 215 301 284
f 313 311 302
f 227 313 302
f 303 227 302
f 229 324 307
f 231 230 308
f 231 320 230
f 311 231 305
f 311 321 231
f 306 232 302
f 306 302 311
f 307 228 303
f 232 307 303
f 232 303 302
f 308 230 304
f 308 304 229
f 308 229 307
f 308 307 232
f 306 305 231
f 306 231 308
f 232 306 308
f 306 311 305
f 311 313 309
f 310 311 309
f 313 227 315
f 313 315 312
f 309 313 312
f 303 228 314
f 315 303 314
f 227 303 315
f 325 307 324
f 314 307 325
f 314 228 307
f 316 229 304
f 324 229 316
f 230 317 318
f 316 318 326
f 304 230 318
f 304 318 316
f 320 231 319
f 230 320 317
f 321 311 310
f 321 310 329
f 319 321 329
f 231 321 319
f 322 310 309
f 285 322 309
f 285 309 216
f 322 285 284
f 329 310 322
f 312 315 287
f 216 309 287
f 309 312 287
f 315 314 323
f 287 323 289
f 287 289 218
f 315 323 287
f 325 324 221
f 325 221 291
f 323 325 291
f 323 291 289
f 314 325 323
f 326 223 294
f 324 326 294
f 324 294 221
f 324 316 326
f 318 317 327
f 326 327 295
f 326 295 223
f 326 318 327
f 328 320 319
f 297 328 225
f 295 327 328
f 295 328 297
f 327 317 320
f 327 320 328
f 329 322 284
f 329 284 300
f 328 329 300
f 328 300 225
f 319 329 328
f 286 217 330
f 286 330 331
f 215 331 270
f 215 286 331
f 288 219 332
f 288 332 273
f 217 288 273
f 217 273 330
f 290 220 333
f 290 333 334
f 334 333 275
f 332 334 275
f 219 290 334
f 219 334 332
f 292 222 276
f 276 222 277
f 220 292 276
f 220 276 333
f 335 293 213
f 335 213 278
f 222 335 278
f 222 278 277
f 296 224 336
f 296 336 337
f 337 336 280
f 213 337 280
f 213 293 296
f 213 296 337
f 299 226 281
f 281 226 214
f 224 299 281
f 224 281 336
f 301 215 338
f 283 338 215
f 283 215 270
f 226 338 283
f 226 283 214
f 226 301 338
f 387 389 430
f 388 387 339
f 388 339 340
f 388 389 387
f 339 434 390
f 390 434 359
f 390 359 341
f 340 339 390
f 341 359 391
f 393 391 392
f 393 392 395
f 341 391 393
f 342 395 396
f 342 396 394
f 395 392 396
f 397 437 398
f 399 397 398
f 342 394 397
f 342 397 399
f 398 437 402
f 400 402 439
f 343 401 402
f 343 402 400
f 398 402 401
f 404 400 439
f 404 439 403
f 404 403 344
f 404 344 345
f 404 343 400
f 389 406 430
f 388 405 406
f 388 406 389
f 345 344 406
f 345 406 405
f 348 346 347
f 348 347 407
f 348 407 349
f 407 356 350
f 349 407 350
f 350 408 352
f 352 351 353
f 353 420 354
f 354 409 410
f 354 410 412
f 410 423 411
f 348 411 423
f 348 423 346
f 412 410 411
f 355 412 349
f 412 348 349
f 413 350 352
f 355 349 350
f 355 350 413
f 414 353 354
f 355 413 353
f 355 353 414
f 413 352 353
f 412 411 348
f 355 414 412
f 414 354 412
f 415 346 423
f 415 347 346
f 356 407 416
f 416 407 347
f 416 347 415
f 418 408 350
f 418 350 417
f 417 350 356
f 352 408 418
f 419 352 418
f 357 351 352
f 357 352 419
f 420 353 357
f 357 353 351
f 428 420 357
f 409 354 421
f 421 354 420
f 421 420 428
f 429 409 421
f 422 410 409
f 422 409 429
f 358 410 422
f 423 410 358
f 425 415 423
f 425 423 424
f 388 425 424
f 388 340 425
f 426 356 416
f 426 416 415
f 426 415 425
f 390 426 425
f 390 425 340
f 341 426 390
f 393 418 417
f 393 417 356
f 393 356 426
f 393 426 341
f 427 357 419
f 419 418 393
f 395 419 393
f 342 427 419
f 342 419 395
f 428 357 427
f 399 427 342
f 398 428 427
f 398 427 399
f 401 421 428
f 401 428 398
f 401 343 429
f 401 429 421
f 343 404 422
f 343 422 429
f 345 422 404
f 424 423 358
f 424 358 422
f 405 424 422
f 405 422 345
f 405 388 424
f 432 339 387
f 432 387 431
f 430 431 387
f 434 339 432
f 433 434 432
f 359 434 433
f 360 392 391
f 360 391 435
f 435 391 359
f 436 361 394
f 436 394 396
f 436 396 392
f 436 392 360
f 437 397 485
f 485 397 394
f 485 394 361
f 373 437 485
f 438 439 402
f 438 402 437
f 438 437 373
f 362 344 403
f 439 440 403
f 362 403 440
f 441 430 406
f 441 406 344
f 441 344 362
f 444 363 364
f 444 364 442
f 365 443 444
f 365 444 442
f 446 443 365
f 446 365 445
f 366 446 445
f 367 446 366
f 448 367 366
f 447 448 366
f 368 448 447
f 368 369 448
f 450 369 368
f 450 368 449
f 370 450 449
f 371 450 370
f 451 371 370
f 451 370 478
f 372 451 478
f 373 451 372
f 453 373 372
f 453 372 454
f 452 454 374
f 375 453 454
f 375 454 452
f 455 375 452
f 455 452 374
f 455 374 480
f 376 455 480
f 377 455 376
f 486 377 376
f 486 376 456
f 364 363 456
f 363 486 456
f 459 458 457
f 378 470 459
f 378 459 381
f 465 470 378
f 460 470 465
f 379 460 465
f 380 463 473
f 463 380 462
f 464 463 462
f 464 462 467
f 457 464 467
f 457 458 464
f 381 459 457
f 381 465 378
f 466 380 473
f 466 473 461
f 465 466 461
f 465 461 379
f 381 466 465
f 466 467 462
f 466 462 380
f 381 467 466
f 381 457 467
f 458 459 468
f 468 459 382
f 458 468 383
f 459 470 469
f 469 470 384
f 459 469 382
f 476 470 460
f 476 460 385
f 470 476 384
f 477 460 379
f 477 379 386
f 460 477 385
f 461 473 471
f 379 471 386
f 379 461 471
f 473 463 472
f 473 472 471
f 463 464 474
f 463 474 475
f 463 475 472
f 481 464 458
f 481 458 383
f 474 464 481
f 468 382 364
f 364 382 365
f 364 365 442
f 383 468 364
f 384 366 445
f 382 384 445
f 382 445 365
f 382 469 384
f 447 476 385
f 447 385 368
f 366 384 476
f 366 476 447
f 449 477 386
f 449 386 370
f 385 477 449
f 385 449 368
f 386 478 370
f 386 471 478
f 479 374 454
f 478 479 454
f 478 454 372
f 471 472 479
f 471 479 478
f 475 474 480
f 479 480 374
f 472 475 480
f 472 480 479
f 481 383 364
f 456 481 364
f 376 480 481
f 376 481 456
f 480 474 481
f 431 444 443
f 431 443 432
f 482 431 430
f 363 444 431
f 363 431 482
f 446 367 433
f 433 367 359
f 443 446 433
f 443 433 432
f 483 448 369
f 483 369 360
f 483 360 435
f 367 483 435
f 367 435 359
f 367 448 483
f 450 371 484
f 484 371 361
f 484 361 436
f 369 484 436
f 369 436 360
f 369 450 484
f 451 373 485
f 371 485 361
f 371 451 485
f 453 375 438
f 438 375 439
f 373 453 438
f 455 377 440
f 440 377 362
f 375 440 439
f 375 455 440
f 486 363 482
f 486 482 430
f 486 430 441
f 377 486 441
f 377 441 362
f 530 572 529
f 487 529 572
f 487 572 502
f 529 488 530
f 487 502 531
f 533 531 532
f 533 532 489
f 533 487 531
f 534 504 535
f 536 534 535
f 489 532 534
f 489 534 536
f 535 504 537
f 535 537 538
f 538 537 490
f 538 490 491
f 492 539 540
f 492 540 576
f 491 490 540
f 491 540 539
f 542 541 505
f 543 541 542
f 492 576 541
f 492 541 543
f 542 505 546
f 546 578 544
f 545 546 544
f 542 546 545
f 547 544 578
f 488 548 547
f 488 547 530
f 548 544 547
f 493 549 550
f 493 550 494
f 494 560 562
f 557 551 564
f 557 564 552
f 557 552 495
f 495 552 553
f 495 553 554
f 554 553 556
f 554 556 555
f 493 556 549
f 493 494 496
f 557 562 551
f 496 557 495
f 496 494 562
f 496 562 557
f 495 554 496
f 555 556 493
f 496 555 493
f 496 554 555
f 497 558 550
f 497 550 549
f 558 566 550
f 559 560 494
f 550 559 494
f 566 559 550
f 559 561 562
f 559 562 560
f 561 568 562
f 568 563 551
f 568 551 562
f 498 564 551
f 498 551 563
f 498 552 564
f 499 552 498
f 500 553 552
f 500 552 499
f 565 556 553
f 565 553 500
f 501 556 565
f 501 549 556
f 501 497 549
f 488 566 558
f 488 558 497
f 488 529 566
f 529 487 566
f 566 567 559
f 487 533 567
f 487 567 566
f 533 489 567
f 567 568 561
f 567 561 559
f 536 568 567
f 536 567 489
f 536 535 568
f 491 498 563
f 538 563 568
f 538 568 535
f 491 563 538
f 492 499 498
f 492 498 491
f 539 492 491
f 569 500 499
f 569 499 492
f 543 569 492
f 542 569 543
f 545 501 565
f 545 565 500
f 545 500 569
f 545 569 542
f 488 497 501
f 545 488 501
f 544 548 488
f 544 488 545
f 572 530 570
f 571 572 570
f 502 572 571
f 503 532 531
f 503 531 573
f 573 531 502
f 504 534 574
f 574 534 532
f 574 532 503
f 622 490 537
f 623 537 504
f 622 537 623
f 575 576 540
f 622 575 540
f 622 540 490
f 575 516 576
f 577 505 541
f 576 577 541
f 516 577 576
f 578 546 579
f 579 546 505
f 626 578 579
f 570 530 547
f 570 547 580
f 578 580 547
f 626 580 578
f 583 506 581
f 582 583 581
f 507 583 582
f 507 508 583
f 585 508 507
f 584 585 507
f 509 585 584
f 509 510 585
f 587 510 509
f 586 587 509
f 511 587 586
f 511 512 587
f 589 512 511
f 588 589 511
f 514 589 588
f 514 588 513
f 590 514 513
f 590 513 620
f 515 590 620
f 516 590 515
f 592 516 515
f 592 515 591
f 517 592 591
f 518 592 517
f 594 518 517
f 594 517 593
f 519 594 593
f 519 593 621
f 595 596 519
f 595 519 621
f 581 596 595
f 506 596 581
f 520 601 600
f 606 520 600
f 613 606 521
f 522 602 613
f 522 613 521
f 607 602 522
f 523 602 607
f 603 523 607
f 605 599 597
f 605 597 598
f 601 599 605
f 605 606 600
f 605 600 601
f 524 606 605
f 524 521 606
f 607 522 521
f 607 521 524
f 607 604 603
f 524 605 604
f 524 604 607
f 605 598 604
f 608 598 597
f 608 597 525
f 526 598 608
f 599 601 609
f 525 597 599
f 525 599 609
f 527 601 520
f 601 527 609
f 606 613 610
f 606 610 611
f 520 611 527
f 520 606 611
f 613 602 612
f 610 613 612
f 602 523 614
f 614 523 528
f 602 614 612
f 523 615 528
f 523 603 615
f 616 604 598
f 616 598 526
f 615 603 616
f 603 604 616
f 582 608 525
f 582 525 507
f 582 526 608
f 584 617 509
f 507 525 617
f 507 617 584
f 525 609 617
f 586 618 511
f 509 617 618
f 509 618 586
f 617 609 527
f 617 527 618
f 611 610 619
f 619 513 588
f 511 618 619
f 511 619 588
f 527 611 619
f 527 619 618
f 619 620 513
f 610 612 620
f 610 620 619
f 528 517 591
f 620 528 591
f 620 591 515
f 612 614 528
f 612 528 620
f 528 621 593
f 528 593 517
f 528 615 621
f 621 616 526
f 621 526 582
f 595 621 582
f 595 582 581
f 621 615 616
f 571 583 508
f 571 508 502
f 506 571 570
f 506 583 571
f 573 585 510
f 573 510 503
f 502 508 573
f 508 585 573
f 574 587 512
f 574 512 504
f 503 510 574
f 510 587 574
f 589 514 622
f 589 622 623
f 512 623 504
f 512 589 623
f 590 516 624
f 624 516 575
f 622 624 575
f 514 590 624
f 514 624 622
f 592 518 625
f 625 518 505
f 625 505 577
f 516 625 577
f 516 592 625
f 594 519 626
f 594 626 579
f 518 579 505
f 518 594 579
f 596 506 580
f 580 506 570
f 519 596 580
f 519 580 626

